G75*
%MOIN*%
%OFA0B0*%
%FSLAX24Y24*%
%IPPOS*%
%LPD*%
%AMOC8*
5,1,8,0,0,1.08239X$1,22.5*
%
%ADD10C,0.0000*%
D10*
X003325Y000150D02*
X019425Y000150D01*
X019425Y013350D01*
X003325Y013350D01*
X003325Y000150D01*
X005795Y002850D02*
X005797Y002900D01*
X005803Y002950D01*
X005813Y002999D01*
X005827Y003047D01*
X005844Y003094D01*
X005865Y003139D01*
X005890Y003183D01*
X005918Y003224D01*
X005950Y003263D01*
X005984Y003300D01*
X006021Y003334D01*
X006061Y003364D01*
X006103Y003391D01*
X006147Y003415D01*
X006193Y003436D01*
X006240Y003452D01*
X006288Y003465D01*
X006338Y003474D01*
X006387Y003479D01*
X006438Y003480D01*
X006488Y003477D01*
X006537Y003470D01*
X006586Y003459D01*
X006634Y003444D01*
X006680Y003426D01*
X006725Y003404D01*
X006768Y003378D01*
X006809Y003349D01*
X006848Y003317D01*
X006884Y003282D01*
X006916Y003244D01*
X006946Y003204D01*
X006973Y003161D01*
X006996Y003117D01*
X007015Y003071D01*
X007031Y003023D01*
X007043Y002974D01*
X007051Y002925D01*
X007055Y002875D01*
X007055Y002825D01*
X007051Y002775D01*
X007043Y002726D01*
X007031Y002677D01*
X007015Y002629D01*
X006996Y002583D01*
X006973Y002539D01*
X006946Y002496D01*
X006916Y002456D01*
X006884Y002418D01*
X006848Y002383D01*
X006809Y002351D01*
X006768Y002322D01*
X006725Y002296D01*
X006680Y002274D01*
X006634Y002256D01*
X006586Y002241D01*
X006537Y002230D01*
X006488Y002223D01*
X006438Y002220D01*
X006387Y002221D01*
X006338Y002226D01*
X006288Y002235D01*
X006240Y002248D01*
X006193Y002264D01*
X006147Y002285D01*
X006103Y002309D01*
X006061Y002336D01*
X006021Y002366D01*
X005984Y002400D01*
X005950Y002437D01*
X005918Y002476D01*
X005890Y002517D01*
X005865Y002561D01*
X005844Y002606D01*
X005827Y002653D01*
X005813Y002701D01*
X005803Y002750D01*
X005797Y002800D01*
X005795Y002850D01*
X005895Y012250D02*
X005897Y012300D01*
X005903Y012350D01*
X005913Y012399D01*
X005927Y012447D01*
X005944Y012494D01*
X005965Y012539D01*
X005990Y012583D01*
X006018Y012624D01*
X006050Y012663D01*
X006084Y012700D01*
X006121Y012734D01*
X006161Y012764D01*
X006203Y012791D01*
X006247Y012815D01*
X006293Y012836D01*
X006340Y012852D01*
X006388Y012865D01*
X006438Y012874D01*
X006487Y012879D01*
X006538Y012880D01*
X006588Y012877D01*
X006637Y012870D01*
X006686Y012859D01*
X006734Y012844D01*
X006780Y012826D01*
X006825Y012804D01*
X006868Y012778D01*
X006909Y012749D01*
X006948Y012717D01*
X006984Y012682D01*
X007016Y012644D01*
X007046Y012604D01*
X007073Y012561D01*
X007096Y012517D01*
X007115Y012471D01*
X007131Y012423D01*
X007143Y012374D01*
X007151Y012325D01*
X007155Y012275D01*
X007155Y012225D01*
X007151Y012175D01*
X007143Y012126D01*
X007131Y012077D01*
X007115Y012029D01*
X007096Y011983D01*
X007073Y011939D01*
X007046Y011896D01*
X007016Y011856D01*
X006984Y011818D01*
X006948Y011783D01*
X006909Y011751D01*
X006868Y011722D01*
X006825Y011696D01*
X006780Y011674D01*
X006734Y011656D01*
X006686Y011641D01*
X006637Y011630D01*
X006588Y011623D01*
X006538Y011620D01*
X006487Y011621D01*
X006438Y011626D01*
X006388Y011635D01*
X006340Y011648D01*
X006293Y011664D01*
X006247Y011685D01*
X006203Y011709D01*
X006161Y011736D01*
X006121Y011766D01*
X006084Y011800D01*
X006050Y011837D01*
X006018Y011876D01*
X005990Y011917D01*
X005965Y011961D01*
X005944Y012006D01*
X005927Y012053D01*
X005913Y012101D01*
X005903Y012150D01*
X005897Y012200D01*
X005895Y012250D01*
X017795Y012250D02*
X017797Y012300D01*
X017803Y012350D01*
X017813Y012399D01*
X017827Y012447D01*
X017844Y012494D01*
X017865Y012539D01*
X017890Y012583D01*
X017918Y012624D01*
X017950Y012663D01*
X017984Y012700D01*
X018021Y012734D01*
X018061Y012764D01*
X018103Y012791D01*
X018147Y012815D01*
X018193Y012836D01*
X018240Y012852D01*
X018288Y012865D01*
X018338Y012874D01*
X018387Y012879D01*
X018438Y012880D01*
X018488Y012877D01*
X018537Y012870D01*
X018586Y012859D01*
X018634Y012844D01*
X018680Y012826D01*
X018725Y012804D01*
X018768Y012778D01*
X018809Y012749D01*
X018848Y012717D01*
X018884Y012682D01*
X018916Y012644D01*
X018946Y012604D01*
X018973Y012561D01*
X018996Y012517D01*
X019015Y012471D01*
X019031Y012423D01*
X019043Y012374D01*
X019051Y012325D01*
X019055Y012275D01*
X019055Y012225D01*
X019051Y012175D01*
X019043Y012126D01*
X019031Y012077D01*
X019015Y012029D01*
X018996Y011983D01*
X018973Y011939D01*
X018946Y011896D01*
X018916Y011856D01*
X018884Y011818D01*
X018848Y011783D01*
X018809Y011751D01*
X018768Y011722D01*
X018725Y011696D01*
X018680Y011674D01*
X018634Y011656D01*
X018586Y011641D01*
X018537Y011630D01*
X018488Y011623D01*
X018438Y011620D01*
X018387Y011621D01*
X018338Y011626D01*
X018288Y011635D01*
X018240Y011648D01*
X018193Y011664D01*
X018147Y011685D01*
X018103Y011709D01*
X018061Y011736D01*
X018021Y011766D01*
X017984Y011800D01*
X017950Y011837D01*
X017918Y011876D01*
X017890Y011917D01*
X017865Y011961D01*
X017844Y012006D01*
X017827Y012053D01*
X017813Y012101D01*
X017803Y012150D01*
X017797Y012200D01*
X017795Y012250D01*
M02*
