G75*
%MOIN*%
%OFA0B0*%
%FSLAX24Y24*%
%IPPOS*%
%LPD*%
%AMOC8*
5,1,8,0,0,1.08239X$1,22.5*
%
%ADD10C,0.1320*%
%ADD11C,0.0651*%
%ADD12C,0.0760*%
%ADD13OC8,0.0540*%
%ADD14C,0.0710*%
%ADD15C,0.0540*%
%ADD16C,0.0560*%
%ADD17C,0.0660*%
D10*
X006425Y002850D03*
X006525Y012250D03*
X018425Y012250D03*
D11*
X004025Y010450D03*
X004025Y009350D03*
D12*
X004125Y002050D03*
X004125Y003050D03*
X004125Y004950D03*
X004125Y005950D03*
D13*
X005825Y007150D03*
X005825Y008250D03*
X005825Y009350D03*
X005825Y010450D03*
X008825Y010450D03*
X008825Y009350D03*
X008825Y008250D03*
X008825Y007150D03*
X010625Y003850D03*
X011625Y003850D03*
X012625Y003850D03*
X016125Y004650D03*
X018125Y003850D03*
X018125Y000850D03*
X012625Y000850D03*
X011625Y000850D03*
X010625Y000850D03*
X008725Y000950D03*
X005725Y000950D03*
X016125Y007650D03*
X016225Y008750D03*
X016225Y010750D03*
D14*
X018525Y010250D03*
X018525Y009250D03*
X018525Y008250D03*
X018525Y007250D03*
X018525Y006250D03*
X018525Y005250D03*
X004025Y007250D03*
X004025Y008250D03*
X004025Y011650D03*
X004025Y012650D03*
D15*
X010625Y009930D02*
X010625Y009450D01*
X011625Y009450D02*
X011625Y009930D01*
X011625Y006450D02*
X011625Y005970D01*
X010625Y005970D02*
X010625Y006450D01*
X009425Y005930D02*
X009425Y005450D01*
X008425Y005450D02*
X008425Y005930D01*
X008425Y002450D02*
X008425Y001970D01*
X009425Y001970D02*
X009425Y002450D01*
D16*
X013925Y003850D03*
X014925Y003850D03*
X015925Y003850D03*
X016925Y003850D03*
X016925Y000850D03*
X015925Y000850D03*
X014925Y000850D03*
X013925Y000850D03*
D17*
X014025Y004850D03*
X013025Y006850D03*
X015025Y006850D03*
X014025Y008750D03*
X013025Y010750D03*
X015025Y010750D03*
M02*
