G75*
%MOIN*%
%OFA0B0*%
%FSLAX24Y24*%
%IPPOS*%
%LPD*%
%AMOC8*
5,1,8,0,0,1.08239X$1,22.5*
%
%ADD10C,0.0040*%
%ADD11C,0.0030*%
%ADD12C,0.0050*%
%ADD13C,0.0060*%
%ADD14R,0.0150X0.0200*%
%ADD15R,0.0200X0.0150*%
%ADD16C,0.0120*%
%ADD17R,0.0100X0.0350*%
%ADD18R,0.0350X0.0100*%
%ADD19C,0.0110*%
%ADD20C,0.0100*%
D10*
X003645Y000470D02*
X003645Y000830D01*
X003825Y000830D01*
X003885Y000770D01*
X003885Y000650D01*
X003825Y000590D01*
X003645Y000590D01*
X003765Y000590D02*
X003885Y000470D01*
X004013Y000470D02*
X004013Y000830D01*
X004193Y000830D01*
X004254Y000770D01*
X004254Y000650D01*
X004193Y000590D01*
X004013Y000590D01*
X004382Y000470D02*
X004502Y000470D01*
X004442Y000470D02*
X004442Y000710D01*
X004382Y000710D01*
X004442Y000830D02*
X004442Y000890D01*
X008095Y002920D02*
X008455Y002920D01*
X008455Y003160D01*
X008455Y003408D02*
X008095Y003408D01*
X008095Y003288D02*
X008095Y003529D01*
X008095Y003657D02*
X008335Y003657D01*
X008455Y003777D01*
X008335Y003897D01*
X008095Y003897D01*
X008155Y004025D02*
X008215Y004025D01*
X008275Y004085D01*
X008275Y004205D01*
X008335Y004265D01*
X008395Y004265D01*
X008455Y004205D01*
X008455Y004085D01*
X008395Y004025D01*
X008335Y004025D01*
X008275Y004085D01*
X008275Y004205D02*
X008215Y004265D01*
X008155Y004265D01*
X008095Y004205D01*
X008095Y004085D01*
X008155Y004025D01*
X008215Y004393D02*
X008095Y004513D01*
X008455Y004513D01*
X008455Y004393D02*
X008455Y004633D01*
X008395Y004762D02*
X008455Y004822D01*
X008455Y004942D01*
X008395Y005002D01*
X008335Y005002D01*
X008275Y004942D01*
X008275Y004762D01*
X008395Y004762D01*
X008275Y004762D02*
X008155Y004882D01*
X008095Y005002D01*
X010295Y006920D02*
X010655Y006920D01*
X010655Y007160D01*
X010655Y007408D02*
X010295Y007408D01*
X010295Y007288D02*
X010295Y007529D01*
X010295Y007657D02*
X010535Y007657D01*
X010655Y007777D01*
X010535Y007897D01*
X010295Y007897D01*
X010355Y008025D02*
X010415Y008025D01*
X010475Y008085D01*
X010475Y008205D01*
X010535Y008265D01*
X010595Y008265D01*
X010655Y008205D01*
X010655Y008085D01*
X010595Y008025D01*
X010535Y008025D01*
X010475Y008085D01*
X010475Y008205D02*
X010415Y008265D01*
X010355Y008265D01*
X010295Y008205D01*
X010295Y008085D01*
X010355Y008025D01*
X010415Y008393D02*
X010295Y008513D01*
X010655Y008513D01*
X010655Y008393D02*
X010655Y008633D01*
X010595Y008762D02*
X010475Y008762D01*
X010475Y008942D01*
X010535Y009002D01*
X010595Y009002D01*
X010655Y008942D01*
X010655Y008822D01*
X010595Y008762D01*
X010475Y008762D02*
X010355Y008882D01*
X010295Y009002D01*
X013308Y007760D02*
X013428Y007880D01*
X013428Y007520D01*
X013308Y007520D02*
X013549Y007520D01*
X013677Y007580D02*
X013917Y007820D01*
X013917Y007580D01*
X013857Y007520D01*
X013737Y007520D01*
X013677Y007580D01*
X013677Y007820D01*
X013737Y007880D01*
X013857Y007880D01*
X013917Y007820D01*
X014045Y007820D02*
X014105Y007880D01*
X014225Y007880D01*
X014285Y007820D01*
X014045Y007580D01*
X014105Y007520D01*
X014225Y007520D01*
X014285Y007580D01*
X014285Y007820D01*
X014413Y007880D02*
X014413Y007520D01*
X014413Y007640D02*
X014654Y007880D01*
X014473Y007700D02*
X014654Y007520D01*
X014045Y007580D02*
X014045Y007820D01*
X017745Y010970D02*
X017985Y011330D01*
X018113Y011270D02*
X018113Y011030D01*
X018173Y010970D01*
X018293Y010970D01*
X018354Y011030D01*
X018482Y011090D02*
X018602Y010970D01*
X018722Y011090D01*
X018722Y011330D01*
X018850Y011330D02*
X019030Y011330D01*
X019090Y011270D01*
X019090Y011150D01*
X019030Y011090D01*
X018850Y011090D01*
X018850Y010970D02*
X018850Y011330D01*
X018970Y011090D02*
X019090Y010970D01*
X018482Y011090D02*
X018482Y011330D01*
X018354Y011270D02*
X018293Y011330D01*
X018173Y011330D01*
X018113Y011270D01*
X017985Y010970D02*
X017745Y011330D01*
X017006Y012670D02*
X016766Y012670D01*
X016886Y012670D02*
X016886Y013030D01*
X016766Y012910D01*
X016642Y012730D02*
X016582Y012730D01*
X016582Y012670D01*
X016642Y012670D01*
X016642Y012730D01*
X016454Y012730D02*
X016393Y012670D01*
X016273Y012670D01*
X016213Y012730D01*
X016454Y012970D01*
X016454Y012730D01*
X016454Y012970D02*
X016393Y013030D01*
X016273Y013030D01*
X016213Y012970D01*
X016213Y012730D01*
X016085Y012670D02*
X015965Y012790D01*
X016025Y012790D02*
X015845Y012790D01*
X015845Y012670D02*
X015845Y013030D01*
X016025Y013030D01*
X016085Y012970D01*
X016085Y012850D01*
X016025Y012790D01*
X014440Y011660D02*
X014260Y011540D01*
X014440Y011420D01*
X014260Y011420D02*
X014260Y011780D01*
X014132Y011720D02*
X013892Y011480D01*
X013952Y011420D01*
X014072Y011420D01*
X014132Y011480D01*
X014132Y011720D01*
X014072Y011780D01*
X013952Y011780D01*
X013892Y011720D01*
X013892Y011480D01*
X013763Y011420D02*
X013523Y011420D01*
X013643Y011420D02*
X013643Y011780D01*
X013523Y011660D01*
D11*
X013501Y012065D02*
X013356Y012065D01*
X013308Y012113D01*
X013308Y012210D01*
X013356Y012258D01*
X013501Y012258D01*
X013603Y012210D02*
X013603Y012113D01*
X013651Y012065D01*
X013748Y012065D01*
X013796Y012113D01*
X013796Y012210D01*
X013748Y012258D01*
X013651Y012258D01*
X013603Y012210D01*
X013897Y012258D02*
X013897Y012065D01*
X013994Y012065D02*
X013994Y012210D01*
X014042Y012258D01*
X014091Y012210D01*
X014091Y012065D01*
X013994Y012210D02*
X013946Y012258D01*
X013897Y012258D01*
X013209Y012113D02*
X013209Y012065D01*
X013161Y012065D01*
X013161Y012113D01*
X013209Y012113D01*
X013059Y012113D02*
X013011Y012162D01*
X012914Y012162D01*
X012866Y012210D01*
X012914Y012258D01*
X013059Y012258D01*
X013059Y012113D02*
X013011Y012065D01*
X012866Y012065D01*
X012766Y012065D02*
X012718Y012113D01*
X012718Y012307D01*
X012766Y012258D02*
X012669Y012258D01*
X012568Y012210D02*
X012568Y012065D01*
X012568Y012210D02*
X012520Y012258D01*
X012423Y012258D01*
X012375Y012210D01*
X012274Y012258D02*
X012274Y012017D01*
X012225Y011968D01*
X012177Y011968D01*
X012129Y012065D02*
X012274Y012065D01*
X012375Y012065D02*
X012375Y012355D01*
X012274Y012258D02*
X012129Y012258D01*
X012080Y012210D01*
X012080Y012113D01*
X012129Y012065D01*
X011979Y012065D02*
X011979Y012258D01*
X011979Y012065D02*
X011834Y012065D01*
X011786Y012113D01*
X011786Y012258D01*
X011684Y012210D02*
X011684Y012113D01*
X011636Y012065D01*
X011539Y012065D01*
X011491Y012113D01*
X011491Y012210D01*
X011539Y012258D01*
X011636Y012258D01*
X011684Y012210D01*
X011390Y012210D02*
X011390Y012065D01*
X011390Y012210D02*
X011341Y012258D01*
X011245Y012258D01*
X011196Y012210D01*
X011097Y012258D02*
X011000Y012258D01*
X011048Y012307D02*
X011048Y012113D01*
X011097Y012065D01*
X011196Y012065D02*
X011196Y012355D01*
X010899Y012210D02*
X010705Y012210D01*
X010605Y012258D02*
X010509Y012258D01*
X010557Y012307D02*
X010557Y012113D01*
X010605Y012065D01*
X010408Y012113D02*
X010408Y012210D01*
X010359Y012258D01*
X010262Y012258D01*
X010214Y012210D01*
X010214Y012113D01*
X010262Y012065D01*
X010359Y012065D01*
X010408Y012113D01*
X010113Y012113D02*
X010113Y012210D01*
X010065Y012258D01*
X009919Y012258D01*
X009919Y012355D02*
X009919Y012065D01*
X010065Y012065D01*
X010113Y012113D01*
X009820Y012113D02*
X009820Y012065D01*
X009772Y012065D01*
X009772Y012113D01*
X009820Y012113D01*
X009671Y012113D02*
X009671Y012258D01*
X009671Y012113D02*
X009623Y012065D01*
X009574Y012113D01*
X009526Y012065D01*
X009477Y012113D01*
X009477Y012258D01*
X009376Y012258D02*
X009376Y012113D01*
X009328Y012065D01*
X009280Y012113D01*
X009231Y012065D01*
X009183Y012113D01*
X009183Y012258D01*
X009082Y012258D02*
X009082Y012113D01*
X009033Y012065D01*
X008985Y012113D01*
X008937Y012065D01*
X008888Y012113D01*
X008888Y012258D01*
X007533Y010595D02*
X007340Y010402D01*
X007388Y010450D02*
X007533Y010305D01*
X007340Y010305D02*
X007340Y010595D01*
X007142Y010595D02*
X007142Y010305D01*
X007045Y010305D02*
X007239Y010305D01*
X007045Y010498D02*
X007142Y010595D01*
X007142Y009495D02*
X007142Y009205D01*
X007045Y009205D02*
X007239Y009205D01*
X007340Y009205D02*
X007340Y009495D01*
X007388Y009350D02*
X007533Y009205D01*
X007340Y009302D02*
X007533Y009495D01*
X007142Y009495D02*
X007045Y009398D01*
X005424Y009474D02*
X005424Y009227D01*
X005362Y009165D01*
X005177Y009165D01*
X005177Y009535D01*
X005362Y009535D01*
X005424Y009474D01*
X005055Y009474D02*
X004993Y009535D01*
X004870Y009535D01*
X004808Y009474D01*
X004808Y009227D01*
X004870Y009165D01*
X004993Y009165D01*
X005055Y009227D01*
X004687Y009227D02*
X004687Y009474D01*
X004625Y009535D01*
X004440Y009535D01*
X004440Y009165D01*
X004625Y009165D01*
X004687Y009227D01*
X004737Y008435D02*
X004737Y008065D01*
X004858Y008065D02*
X004982Y008065D01*
X004920Y008065D02*
X004920Y008435D01*
X004858Y008435D02*
X004982Y008435D01*
X005104Y008374D02*
X005104Y008127D01*
X005166Y008065D01*
X005289Y008065D01*
X005351Y008127D01*
X005351Y008374D02*
X005289Y008435D01*
X005166Y008435D01*
X005104Y008374D01*
X004737Y008435D02*
X004613Y008312D01*
X004490Y008435D01*
X004490Y008065D01*
X004552Y007435D02*
X004490Y007374D01*
X004490Y007127D01*
X004552Y007065D01*
X004675Y007065D01*
X004737Y007127D01*
X004737Y007250D01*
X004613Y007250D01*
X004737Y007374D02*
X004675Y007435D01*
X004552Y007435D01*
X004858Y007435D02*
X005105Y007065D01*
X005105Y007435D01*
X005227Y007435D02*
X005412Y007435D01*
X005474Y007374D01*
X005474Y007127D01*
X005412Y007065D01*
X005227Y007065D01*
X005227Y007435D01*
X004858Y007435D02*
X004858Y007065D01*
X004222Y006514D02*
X004028Y006514D01*
X004125Y006418D02*
X004125Y006611D01*
X004640Y006392D02*
X004640Y006207D01*
X005010Y006207D01*
X005010Y006392D01*
X004948Y006453D01*
X004701Y006453D01*
X004640Y006392D01*
X004640Y006085D02*
X004640Y005838D01*
X005010Y005838D01*
X005010Y006085D01*
X004825Y005962D02*
X004825Y005838D01*
X005010Y005717D02*
X005010Y005470D01*
X004640Y005470D01*
X004640Y005349D02*
X004640Y005102D01*
X004640Y004980D02*
X004640Y004733D01*
X004640Y004857D02*
X005010Y004857D01*
X004825Y004612D02*
X004887Y004550D01*
X004887Y004365D01*
X005010Y004365D02*
X004640Y004365D01*
X004640Y004550D01*
X004701Y004612D01*
X004825Y004612D01*
X005361Y004310D02*
X005361Y004213D01*
X005410Y004165D01*
X005555Y004165D01*
X005656Y004213D02*
X005704Y004165D01*
X005850Y004165D01*
X005951Y004310D02*
X006144Y004310D01*
X006245Y004358D02*
X006390Y004358D01*
X006439Y004310D01*
X006439Y004213D01*
X006390Y004165D01*
X006245Y004165D01*
X006245Y004455D01*
X006540Y004358D02*
X006540Y004213D01*
X006588Y004165D01*
X006733Y004165D01*
X006733Y004117D02*
X006685Y004068D01*
X006637Y004068D01*
X006733Y004117D02*
X006733Y004358D01*
X006835Y004310D02*
X007028Y004310D01*
X007129Y004310D02*
X007178Y004358D01*
X007323Y004358D01*
X007274Y004262D02*
X007178Y004262D01*
X007129Y004310D01*
X007129Y004165D02*
X007274Y004165D01*
X007323Y004213D01*
X007274Y004262D01*
X007424Y004213D02*
X007472Y004262D01*
X007617Y004262D01*
X007617Y004310D02*
X007617Y004165D01*
X007472Y004165D01*
X007424Y004213D01*
X007472Y004358D02*
X007569Y004358D01*
X007617Y004310D01*
X005850Y004358D02*
X005704Y004358D01*
X005656Y004310D01*
X005656Y004213D01*
X005555Y004358D02*
X005410Y004358D01*
X005361Y004310D01*
X004948Y003553D02*
X004701Y003553D01*
X004640Y003492D01*
X004640Y003307D01*
X005010Y003307D01*
X005010Y003492D01*
X004948Y003553D01*
X005010Y003185D02*
X005010Y002938D01*
X004640Y002938D01*
X004640Y003185D01*
X004825Y003062D02*
X004825Y002938D01*
X005010Y002817D02*
X005010Y002570D01*
X004640Y002570D01*
X004701Y002449D02*
X004640Y002387D01*
X004640Y002202D01*
X005010Y002202D01*
X005010Y002387D01*
X004948Y002449D01*
X004701Y002449D01*
X004701Y002080D02*
X004640Y002018D01*
X004640Y001895D01*
X004701Y001833D01*
X004948Y001833D01*
X005010Y001895D01*
X005010Y002018D01*
X004948Y002080D01*
X004948Y001712D02*
X004701Y001712D01*
X004640Y001650D01*
X004640Y001465D01*
X005010Y001465D01*
X005010Y001650D01*
X004948Y001712D01*
X004222Y001414D02*
X004028Y001414D01*
X004125Y001318D02*
X004125Y001511D01*
X006945Y000998D02*
X007042Y001095D01*
X007042Y000805D01*
X006945Y000805D02*
X007139Y000805D01*
X007240Y000805D02*
X007240Y001095D01*
X007288Y000950D02*
X007433Y000805D01*
X007240Y000902D02*
X007433Y001095D01*
X010480Y002044D02*
X010770Y002044D01*
X010770Y001948D02*
X010770Y002141D01*
X010722Y002242D02*
X010528Y002436D01*
X010722Y002436D01*
X010770Y002387D01*
X010770Y002291D01*
X010722Y002242D01*
X010528Y002242D01*
X010480Y002291D01*
X010480Y002387D01*
X010528Y002436D01*
X010480Y002537D02*
X010770Y002537D01*
X010673Y002537D02*
X010577Y002682D01*
X010673Y002537D02*
X010770Y002682D01*
X011480Y002706D02*
X011673Y002512D01*
X011625Y002561D02*
X011770Y002706D01*
X011770Y002512D02*
X011480Y002512D01*
X011480Y002411D02*
X011528Y002411D01*
X011722Y002218D01*
X011770Y002218D01*
X011770Y002068D02*
X011480Y002068D01*
X011625Y001923D01*
X011625Y002117D01*
X011480Y002218D02*
X011480Y002411D01*
X010577Y001948D02*
X010480Y002044D01*
X012480Y002068D02*
X012625Y001923D01*
X012625Y002117D01*
X012722Y002218D02*
X012770Y002218D01*
X012722Y002218D02*
X012528Y002411D01*
X012480Y002411D01*
X012480Y002218D01*
X012480Y002068D02*
X012770Y002068D01*
X012770Y002512D02*
X012480Y002512D01*
X012625Y002561D02*
X012770Y002706D01*
X012673Y002512D02*
X012480Y002706D01*
X015980Y005672D02*
X016077Y005576D01*
X015980Y005672D02*
X016270Y005672D01*
X016270Y005576D02*
X016270Y005769D01*
X016222Y005870D02*
X016028Y006064D01*
X016222Y006064D01*
X016270Y006015D01*
X016270Y005919D01*
X016222Y005870D01*
X016028Y005870D01*
X015980Y005919D01*
X015980Y006015D01*
X016028Y006064D01*
X016028Y006165D02*
X015980Y006213D01*
X015980Y006310D01*
X016028Y006358D01*
X016222Y006165D01*
X016270Y006213D01*
X016270Y006310D01*
X016222Y006358D01*
X016028Y006358D01*
X015980Y006460D02*
X016270Y006460D01*
X016173Y006460D02*
X015980Y006653D01*
X016125Y006508D02*
X016270Y006653D01*
X016985Y006374D02*
X016985Y006127D01*
X017047Y006065D01*
X017170Y006065D01*
X017232Y006127D01*
X017232Y006250D01*
X017108Y006250D01*
X016985Y006374D02*
X017047Y006435D01*
X017170Y006435D01*
X017232Y006374D01*
X017353Y006435D02*
X017600Y006065D01*
X017600Y006435D01*
X017722Y006435D02*
X017907Y006435D01*
X017969Y006374D01*
X017969Y006127D01*
X017907Y006065D01*
X017722Y006065D01*
X017722Y006435D01*
X017353Y006435D02*
X017353Y006065D01*
X017355Y005435D02*
X017355Y005065D01*
X017476Y005065D02*
X017600Y005065D01*
X017538Y005065D02*
X017538Y005435D01*
X017476Y005435D02*
X017600Y005435D01*
X017722Y005374D02*
X017722Y005127D01*
X017783Y005065D01*
X017907Y005065D01*
X017969Y005127D01*
X017969Y005374D02*
X017907Y005435D01*
X017783Y005435D01*
X017722Y005374D01*
X017355Y005435D02*
X017231Y005312D01*
X017108Y005435D01*
X017108Y005065D01*
X016222Y006165D02*
X016028Y006165D01*
X016985Y007065D02*
X016985Y007435D01*
X017170Y007435D01*
X017232Y007374D01*
X017232Y007250D01*
X017170Y007188D01*
X016985Y007188D01*
X017353Y007435D02*
X017600Y007435D01*
X017722Y007435D02*
X017969Y007435D01*
X017845Y007435D02*
X017845Y007065D01*
X017477Y007065D02*
X017477Y007435D01*
X017539Y008065D02*
X017415Y008065D01*
X017353Y008127D01*
X017231Y008127D02*
X017231Y008065D01*
X017169Y008065D01*
X017169Y008127D01*
X017231Y008127D01*
X017353Y008250D02*
X017477Y008312D01*
X017539Y008312D01*
X017600Y008250D01*
X017600Y008127D01*
X017539Y008065D01*
X017722Y008188D02*
X017845Y008065D01*
X017969Y008188D01*
X017969Y008435D01*
X017722Y008435D02*
X017722Y008188D01*
X017600Y008435D02*
X017353Y008435D01*
X017353Y008250D01*
X017048Y008374D02*
X016801Y008127D01*
X016801Y008065D01*
X016801Y008435D02*
X017048Y008435D01*
X017048Y008374D01*
X017047Y009065D02*
X016985Y009127D01*
X016985Y009374D01*
X017047Y009435D01*
X017170Y009435D01*
X017232Y009374D01*
X017232Y009250D02*
X017108Y009250D01*
X017232Y009250D02*
X017232Y009127D01*
X017170Y009065D01*
X017047Y009065D01*
X017353Y009065D02*
X017353Y009435D01*
X017600Y009065D01*
X017600Y009435D01*
X017722Y009435D02*
X017907Y009435D01*
X017969Y009374D01*
X017969Y009127D01*
X017907Y009065D01*
X017722Y009065D01*
X017722Y009435D01*
X017722Y010065D02*
X017722Y010435D01*
X017600Y010374D02*
X017600Y010250D01*
X017539Y010188D01*
X017353Y010188D01*
X017232Y010188D02*
X017232Y010127D01*
X017170Y010065D01*
X017047Y010065D01*
X016985Y010127D01*
X017047Y010250D02*
X016985Y010312D01*
X016985Y010374D01*
X017047Y010435D01*
X017170Y010435D01*
X017232Y010374D01*
X017353Y010435D02*
X017539Y010435D01*
X017600Y010374D01*
X017783Y010250D02*
X017969Y010065D01*
X017722Y010188D02*
X017969Y010435D01*
X017353Y010435D02*
X017353Y010065D01*
X017232Y010188D02*
X017170Y010250D01*
X017047Y010250D01*
X016532Y011065D02*
X016532Y011355D01*
X016387Y011210D01*
X016581Y011210D01*
X016286Y011113D02*
X016238Y011065D01*
X016141Y011065D01*
X016093Y011113D01*
X016286Y011307D01*
X016286Y011113D01*
X016093Y011113D02*
X016093Y011307D01*
X016141Y011355D01*
X016238Y011355D01*
X016286Y011307D01*
X015992Y011065D02*
X015798Y011065D01*
X015895Y011065D02*
X015895Y011355D01*
X015798Y011258D01*
X009430Y008557D02*
X009140Y008557D01*
X009285Y008412D01*
X009285Y008606D01*
X009188Y008311D02*
X009382Y008311D01*
X009430Y008263D01*
X009430Y008166D01*
X009382Y008118D01*
X009188Y008311D01*
X009140Y008263D01*
X009140Y008166D01*
X009188Y008118D01*
X009382Y008118D01*
X009430Y008017D02*
X009430Y007823D01*
X009430Y007920D02*
X009140Y007920D01*
X009237Y007823D01*
X007533Y007295D02*
X007340Y007102D01*
X007388Y007150D02*
X007533Y007005D01*
X007340Y007005D02*
X007340Y007295D01*
X007142Y007295D02*
X007142Y007005D01*
X007045Y007005D02*
X007239Y007005D01*
X007045Y007198D02*
X007142Y007295D01*
X005010Y005225D02*
X004640Y005225D01*
X004440Y010265D02*
X004440Y010635D01*
X004625Y010635D01*
X004687Y010574D01*
X004687Y010450D01*
X004625Y010388D01*
X004440Y010388D01*
X004808Y010635D02*
X005055Y010635D01*
X005177Y010635D02*
X005424Y010635D01*
X005300Y010635D02*
X005300Y010265D01*
X004932Y010265D02*
X004932Y010635D01*
X004858Y011465D02*
X004858Y011835D01*
X005043Y011835D01*
X005105Y011774D01*
X005105Y011650D01*
X005043Y011588D01*
X004858Y011588D01*
X004737Y011588D02*
X004737Y011527D01*
X004675Y011465D01*
X004552Y011465D01*
X004490Y011527D01*
X004552Y011650D02*
X004490Y011712D01*
X004490Y011774D01*
X004552Y011835D01*
X004675Y011835D01*
X004737Y011774D01*
X004675Y011650D02*
X004737Y011588D01*
X004675Y011650D02*
X004552Y011650D01*
X005227Y011588D02*
X005474Y011835D01*
X005227Y011835D02*
X005227Y011465D01*
X005288Y011650D02*
X005474Y011465D01*
X005412Y012465D02*
X005227Y012465D01*
X005227Y012835D01*
X005412Y012835D01*
X005474Y012774D01*
X005474Y012527D01*
X005412Y012465D01*
X005105Y012465D02*
X005105Y012835D01*
X004858Y012835D02*
X005105Y012465D01*
X004858Y012465D02*
X004858Y012835D01*
X004737Y012774D02*
X004675Y012835D01*
X004552Y012835D01*
X004490Y012774D01*
X004490Y012527D01*
X004552Y012465D01*
X004675Y012465D01*
X004737Y012527D01*
X004737Y012650D01*
X004613Y012650D01*
X018885Y002706D02*
X018885Y002512D01*
X018740Y002657D01*
X019030Y002657D01*
X018982Y002411D02*
X018788Y002411D01*
X018982Y002218D01*
X019030Y002266D01*
X019030Y002363D01*
X018982Y002411D01*
X018982Y002218D02*
X018788Y002218D01*
X018740Y002266D01*
X018740Y002363D01*
X018788Y002411D01*
X019030Y002117D02*
X019030Y001923D01*
X019030Y002020D02*
X018740Y002020D01*
X018837Y001923D01*
D12*
X016690Y002125D02*
X016690Y002575D01*
X016390Y002575D02*
X016690Y002125D01*
X016390Y002125D02*
X016390Y002575D01*
X016229Y002500D02*
X016229Y002425D01*
X016154Y002350D01*
X016004Y002350D01*
X015929Y002425D01*
X015929Y002500D01*
X016004Y002575D01*
X016154Y002575D01*
X016229Y002500D01*
X016154Y002350D02*
X016229Y002275D01*
X016229Y002200D01*
X016154Y002125D01*
X016004Y002125D01*
X015929Y002200D01*
X015929Y002275D01*
X016004Y002350D01*
X015769Y002350D02*
X015769Y002200D01*
X015694Y002125D01*
X015544Y002125D01*
X015469Y002200D01*
X015469Y002350D02*
X015619Y002425D01*
X015694Y002425D01*
X015769Y002350D01*
X015469Y002350D02*
X015469Y002575D01*
X015769Y002575D01*
X015309Y002500D02*
X015309Y002425D01*
X015234Y002350D01*
X015309Y002275D01*
X015309Y002200D01*
X015234Y002125D01*
X015083Y002125D01*
X015008Y002200D01*
X014848Y002125D02*
X014848Y002575D01*
X014698Y002425D01*
X014548Y002575D01*
X014548Y002125D01*
X014388Y002125D02*
X014088Y002125D01*
X014088Y002575D01*
X015008Y002500D02*
X015083Y002575D01*
X015234Y002575D01*
X015309Y002500D01*
X015234Y002350D02*
X015159Y002350D01*
X012400Y004375D02*
X011950Y004375D01*
X012100Y004525D01*
X011950Y004675D01*
X012400Y004675D01*
X012400Y004835D02*
X012400Y004986D01*
X012400Y004910D02*
X011950Y004910D01*
X011950Y004835D02*
X011950Y004986D01*
X012025Y005142D02*
X012325Y005142D01*
X012400Y005217D01*
X012400Y005368D01*
X012325Y005443D01*
X012025Y005443D02*
X011950Y005368D01*
X011950Y005217D01*
X012025Y005142D01*
X006715Y004840D02*
X006615Y004710D01*
X006395Y004710D01*
X006315Y004840D01*
X006715Y004840D01*
X006689Y004806D02*
X006336Y004806D01*
X006366Y004758D02*
X006652Y004758D01*
X012025Y010175D02*
X012100Y010175D01*
X012175Y010250D01*
X012175Y010400D01*
X012250Y010475D01*
X012325Y010475D01*
X012400Y010400D01*
X012400Y010250D01*
X012325Y010175D01*
X012025Y010175D02*
X011950Y010250D01*
X011950Y010400D01*
X012025Y010475D01*
X011950Y010635D02*
X011950Y010861D01*
X012025Y010936D01*
X012175Y010936D01*
X012250Y010861D01*
X012250Y010635D01*
X012400Y010635D02*
X011950Y010635D01*
X011950Y011096D02*
X012400Y011096D01*
X012250Y011096D02*
X011950Y011396D01*
X012175Y011171D02*
X012400Y011396D01*
D13*
X012675Y011250D02*
X012652Y011248D01*
X012629Y011243D01*
X012607Y011234D01*
X012587Y011221D01*
X012569Y011206D01*
X012554Y011188D01*
X012541Y011168D01*
X012532Y011146D01*
X012527Y011123D01*
X012525Y011100D01*
X013375Y011250D02*
X014675Y011250D01*
X015375Y011250D02*
X015398Y011248D01*
X015421Y011243D01*
X015443Y011234D01*
X015463Y011221D01*
X015481Y011206D01*
X015496Y011188D01*
X015509Y011168D01*
X015518Y011146D01*
X015523Y011123D01*
X015525Y011100D01*
X015775Y010400D02*
X015775Y009100D01*
X015777Y009074D01*
X015782Y009048D01*
X015790Y009023D01*
X015802Y009000D01*
X015816Y008978D01*
X015834Y008959D01*
X015853Y008941D01*
X015875Y008927D01*
X015898Y008915D01*
X015923Y008907D01*
X015949Y008902D01*
X015975Y008900D01*
X016225Y009211D02*
X016225Y009630D01*
X016225Y009880D02*
X016225Y010289D01*
X015975Y010600D02*
X015949Y010598D01*
X015923Y010593D01*
X015898Y010585D01*
X015875Y010573D01*
X015853Y010559D01*
X015834Y010541D01*
X015816Y010522D01*
X015802Y010500D01*
X015790Y010477D01*
X015782Y010452D01*
X015777Y010426D01*
X015775Y010400D01*
X015525Y010350D02*
X015525Y008400D01*
X015523Y008377D01*
X015518Y008354D01*
X015509Y008332D01*
X015496Y008312D01*
X015481Y008294D01*
X015463Y008279D01*
X015443Y008266D01*
X015421Y008257D01*
X015398Y008252D01*
X015375Y008250D01*
X014375Y008250D01*
X013675Y008250D02*
X012675Y008250D01*
X012652Y008252D01*
X012629Y008257D01*
X012607Y008266D01*
X012587Y008279D01*
X012569Y008294D01*
X012554Y008312D01*
X012541Y008332D01*
X012532Y008354D01*
X012527Y008377D01*
X012525Y008400D01*
X012525Y010350D01*
X013275Y009750D02*
X013475Y009750D01*
X013675Y009650D02*
X013675Y009850D01*
X013925Y009850D01*
X013925Y010100D01*
X014125Y010100D01*
X014125Y009850D01*
X014375Y009850D01*
X014375Y009650D01*
X014125Y009650D01*
X014125Y009400D01*
X013925Y009400D01*
X013925Y009650D01*
X013675Y009650D01*
X013625Y009350D02*
X013525Y009250D01*
X014425Y009350D02*
X014525Y009250D01*
X014575Y009750D02*
X014775Y009750D01*
X014375Y010100D02*
X014575Y010300D01*
X013675Y010100D02*
X013475Y010300D01*
X012125Y009100D02*
X012125Y008350D01*
X012086Y008348D01*
X012047Y008342D01*
X012009Y008333D01*
X011972Y008320D01*
X011936Y008303D01*
X011903Y008283D01*
X011871Y008259D01*
X011842Y008233D01*
X011816Y008204D01*
X011792Y008172D01*
X011772Y008139D01*
X011755Y008103D01*
X011742Y008066D01*
X011733Y008028D01*
X011727Y007989D01*
X011725Y007950D01*
X011727Y007911D01*
X011733Y007872D01*
X011742Y007834D01*
X011755Y007797D01*
X011772Y007761D01*
X011792Y007728D01*
X011816Y007696D01*
X011842Y007667D01*
X011871Y007641D01*
X011903Y007617D01*
X011936Y007597D01*
X011972Y007580D01*
X012009Y007567D01*
X012047Y007558D01*
X012086Y007552D01*
X012125Y007550D01*
X012125Y006800D01*
X010125Y006800D01*
X010125Y009100D01*
X012125Y009100D01*
X013375Y007350D02*
X014675Y007350D01*
X015375Y007350D02*
X015398Y007348D01*
X015421Y007343D01*
X015443Y007334D01*
X015463Y007321D01*
X015481Y007306D01*
X015496Y007288D01*
X015509Y007268D01*
X015518Y007246D01*
X015523Y007223D01*
X015525Y007200D01*
X015725Y007050D02*
X015725Y006900D01*
X015775Y006850D01*
X015775Y005450D01*
X015725Y005400D01*
X015725Y005250D01*
X015727Y005233D01*
X015731Y005216D01*
X015738Y005200D01*
X015748Y005186D01*
X015761Y005173D01*
X015775Y005163D01*
X015791Y005156D01*
X015808Y005152D01*
X015825Y005150D01*
X016425Y005150D01*
X016442Y005152D01*
X016459Y005156D01*
X016475Y005163D01*
X016489Y005173D01*
X016502Y005186D01*
X016512Y005200D01*
X016519Y005216D01*
X016523Y005233D01*
X016525Y005250D01*
X016525Y005400D01*
X016475Y005450D01*
X016475Y006850D01*
X016525Y006900D01*
X016525Y007050D01*
X016523Y007067D01*
X016519Y007084D01*
X016512Y007100D01*
X016502Y007114D01*
X016489Y007127D01*
X016475Y007137D01*
X016459Y007144D01*
X016442Y007148D01*
X016425Y007150D01*
X015825Y007150D01*
X015808Y007148D01*
X015791Y007144D01*
X015775Y007137D01*
X015761Y007127D01*
X015748Y007114D01*
X015738Y007100D01*
X015731Y007084D01*
X015727Y007067D01*
X015725Y007050D01*
X015525Y006450D02*
X015525Y004500D01*
X015523Y004477D01*
X015518Y004454D01*
X015509Y004432D01*
X015496Y004412D01*
X015481Y004394D01*
X015463Y004379D01*
X015443Y004366D01*
X015421Y004357D01*
X015398Y004352D01*
X015375Y004350D01*
X014375Y004350D01*
X013675Y004350D02*
X012675Y004350D01*
X012652Y004352D01*
X012629Y004357D01*
X012607Y004366D01*
X012587Y004379D01*
X012569Y004394D01*
X012554Y004412D01*
X012541Y004432D01*
X012532Y004454D01*
X012527Y004477D01*
X012525Y004500D01*
X012525Y006450D01*
X013275Y005850D02*
X013475Y005850D01*
X013675Y005750D02*
X013675Y005950D01*
X013925Y005950D01*
X013925Y006200D01*
X014125Y006200D01*
X014125Y005950D01*
X014375Y005950D01*
X014375Y005750D01*
X014125Y005750D01*
X014125Y005500D01*
X013925Y005500D01*
X013925Y005750D01*
X013675Y005750D01*
X013625Y005450D02*
X013525Y005350D01*
X014425Y005450D02*
X014525Y005350D01*
X014575Y005850D02*
X014775Y005850D01*
X014375Y006200D02*
X014575Y006400D01*
X013675Y006200D02*
X013475Y006400D01*
X012675Y007350D02*
X012652Y007348D01*
X012629Y007343D01*
X012607Y007334D01*
X012587Y007321D01*
X012569Y007306D01*
X012554Y007288D01*
X012541Y007268D01*
X012532Y007246D01*
X012527Y007223D01*
X012525Y007200D01*
X009925Y005100D02*
X009925Y004350D01*
X009886Y004348D01*
X009847Y004342D01*
X009809Y004333D01*
X009772Y004320D01*
X009736Y004303D01*
X009703Y004283D01*
X009671Y004259D01*
X009642Y004233D01*
X009616Y004204D01*
X009592Y004172D01*
X009572Y004139D01*
X009555Y004103D01*
X009542Y004066D01*
X009533Y004028D01*
X009527Y003989D01*
X009525Y003950D01*
X009527Y003911D01*
X009533Y003872D01*
X009542Y003834D01*
X009555Y003797D01*
X009572Y003761D01*
X009592Y003728D01*
X009616Y003696D01*
X009642Y003667D01*
X009671Y003641D01*
X009703Y003617D01*
X009736Y003597D01*
X009772Y003580D01*
X009809Y003567D01*
X009847Y003558D01*
X009886Y003552D01*
X009925Y003550D01*
X009925Y002800D01*
X007925Y002800D01*
X007925Y005100D01*
X009925Y005100D01*
X010325Y003350D02*
X010925Y003350D01*
X010942Y003348D01*
X010959Y003344D01*
X010975Y003337D01*
X010989Y003327D01*
X011002Y003314D01*
X011012Y003300D01*
X011019Y003284D01*
X011023Y003267D01*
X011025Y003250D01*
X011025Y003100D01*
X010975Y003050D01*
X010975Y001650D01*
X011025Y001600D01*
X011025Y001450D01*
X011023Y001433D01*
X011019Y001416D01*
X011012Y001400D01*
X011002Y001386D01*
X010989Y001373D01*
X010975Y001363D01*
X010959Y001356D01*
X010942Y001352D01*
X010925Y001350D01*
X010325Y001350D01*
X010308Y001352D01*
X010291Y001356D01*
X010275Y001363D01*
X010261Y001373D01*
X010248Y001386D01*
X010238Y001400D01*
X010231Y001416D01*
X010227Y001433D01*
X010225Y001450D01*
X010225Y001600D01*
X010275Y001650D01*
X010275Y003050D01*
X010225Y003100D01*
X010225Y003250D01*
X010227Y003267D01*
X010231Y003284D01*
X010238Y003300D01*
X010248Y003314D01*
X010261Y003327D01*
X010275Y003337D01*
X010291Y003344D01*
X010308Y003348D01*
X010325Y003350D01*
X011225Y003250D02*
X011225Y003100D01*
X011275Y003050D01*
X011275Y001650D01*
X011225Y001600D01*
X011225Y001450D01*
X011227Y001433D01*
X011231Y001416D01*
X011238Y001400D01*
X011248Y001386D01*
X011261Y001373D01*
X011275Y001363D01*
X011291Y001356D01*
X011308Y001352D01*
X011325Y001350D01*
X011925Y001350D01*
X011942Y001352D01*
X011959Y001356D01*
X011975Y001363D01*
X011989Y001373D01*
X012002Y001386D01*
X012012Y001400D01*
X012019Y001416D01*
X012023Y001433D01*
X012025Y001450D01*
X012025Y001600D01*
X011975Y001650D01*
X011975Y003050D01*
X012025Y003100D01*
X012025Y003250D01*
X012023Y003267D01*
X012019Y003284D01*
X012012Y003300D01*
X012002Y003314D01*
X011989Y003327D01*
X011975Y003337D01*
X011959Y003344D01*
X011942Y003348D01*
X011925Y003350D01*
X011325Y003350D01*
X011308Y003348D01*
X011291Y003344D01*
X011275Y003337D01*
X011261Y003327D01*
X011248Y003314D01*
X011238Y003300D01*
X011231Y003284D01*
X011227Y003267D01*
X011225Y003250D01*
X012225Y003250D02*
X012225Y003100D01*
X012275Y003050D01*
X012275Y001650D01*
X012225Y001600D01*
X012225Y001450D01*
X012227Y001433D01*
X012231Y001416D01*
X012238Y001400D01*
X012248Y001386D01*
X012261Y001373D01*
X012275Y001363D01*
X012291Y001356D01*
X012308Y001352D01*
X012325Y001350D01*
X012925Y001350D01*
X012942Y001352D01*
X012959Y001356D01*
X012975Y001363D01*
X012989Y001373D01*
X013002Y001386D01*
X013012Y001400D01*
X013019Y001416D01*
X013023Y001433D01*
X013025Y001450D01*
X013025Y001600D01*
X012975Y001650D01*
X012975Y003050D01*
X013025Y003100D01*
X013025Y003250D01*
X013023Y003267D01*
X013019Y003284D01*
X013012Y003300D01*
X013002Y003314D01*
X012989Y003327D01*
X012975Y003337D01*
X012959Y003344D01*
X012942Y003348D01*
X012925Y003350D01*
X012325Y003350D01*
X012308Y003348D01*
X012291Y003344D01*
X012275Y003337D01*
X012261Y003327D01*
X012248Y003314D01*
X012238Y003300D01*
X012231Y003284D01*
X012227Y003267D01*
X012225Y003250D01*
X013425Y003500D02*
X013425Y001200D01*
X017425Y001200D01*
X017425Y001950D01*
X017675Y001700D02*
X017675Y003000D01*
X017677Y003026D01*
X017682Y003052D01*
X017690Y003077D01*
X017702Y003100D01*
X017716Y003122D01*
X017734Y003141D01*
X017753Y003159D01*
X017775Y003173D01*
X017798Y003185D01*
X017823Y003193D01*
X017849Y003198D01*
X017875Y003200D01*
X018375Y003200D01*
X018401Y003198D01*
X018427Y003193D01*
X018452Y003185D01*
X018475Y003173D01*
X018497Y003159D01*
X018516Y003141D01*
X018534Y003122D01*
X018548Y003100D01*
X018560Y003077D01*
X018568Y003052D01*
X018573Y003026D01*
X018575Y003000D01*
X018575Y001700D01*
X018573Y001674D01*
X018568Y001648D01*
X018560Y001623D01*
X018548Y001600D01*
X018534Y001578D01*
X018516Y001559D01*
X018497Y001541D01*
X018475Y001527D01*
X018452Y001515D01*
X018427Y001507D01*
X018401Y001502D01*
X018375Y001500D01*
X017875Y001500D01*
X017849Y001502D01*
X017823Y001507D01*
X017798Y001515D01*
X017775Y001527D01*
X017753Y001541D01*
X017734Y001559D01*
X017716Y001578D01*
X017702Y001600D01*
X017690Y001623D01*
X017682Y001648D01*
X017677Y001674D01*
X017675Y001700D01*
X018125Y001750D02*
X018125Y002230D01*
X018125Y002480D02*
X018125Y002950D01*
X017425Y002750D02*
X017425Y003500D01*
X013425Y003500D01*
X017425Y002750D02*
X017386Y002748D01*
X017347Y002742D01*
X017309Y002733D01*
X017272Y002720D01*
X017236Y002703D01*
X017203Y002683D01*
X017171Y002659D01*
X017142Y002633D01*
X017116Y002604D01*
X017092Y002572D01*
X017072Y002539D01*
X017055Y002503D01*
X017042Y002466D01*
X017033Y002428D01*
X017027Y002389D01*
X017025Y002350D01*
X017027Y002311D01*
X017033Y002272D01*
X017042Y002234D01*
X017055Y002197D01*
X017072Y002161D01*
X017092Y002128D01*
X017116Y002096D01*
X017142Y002067D01*
X017171Y002041D01*
X017203Y002017D01*
X017236Y001997D01*
X017272Y001980D01*
X017309Y001967D01*
X017347Y001958D01*
X017386Y001952D01*
X017425Y001950D01*
X008225Y001250D02*
X008225Y000650D01*
X008223Y000633D01*
X008219Y000616D01*
X008212Y000600D01*
X008202Y000586D01*
X008189Y000573D01*
X008175Y000563D01*
X008159Y000556D01*
X008142Y000552D01*
X008125Y000550D01*
X007975Y000550D01*
X007925Y000600D01*
X006525Y000600D01*
X006475Y000550D01*
X006325Y000550D01*
X006308Y000552D01*
X006291Y000556D01*
X006275Y000563D01*
X006261Y000573D01*
X006248Y000586D01*
X006238Y000600D01*
X006231Y000616D01*
X006227Y000633D01*
X006225Y000650D01*
X006225Y001250D01*
X006227Y001267D01*
X006231Y001284D01*
X006238Y001300D01*
X006248Y001314D01*
X006261Y001327D01*
X006275Y001337D01*
X006291Y001344D01*
X006308Y001348D01*
X006325Y001350D01*
X006475Y001350D01*
X006525Y001300D01*
X007925Y001300D01*
X007975Y001350D01*
X008125Y001350D01*
X008142Y001348D01*
X008159Y001344D01*
X008175Y001337D01*
X008189Y001327D01*
X008202Y001314D01*
X008212Y001300D01*
X008219Y001284D01*
X008223Y001267D01*
X008225Y001250D01*
X008225Y006750D02*
X008075Y006750D01*
X008025Y006800D01*
X006625Y006800D01*
X006575Y006750D01*
X006425Y006750D01*
X006408Y006752D01*
X006391Y006756D01*
X006375Y006763D01*
X006361Y006773D01*
X006348Y006786D01*
X006338Y006800D01*
X006331Y006816D01*
X006327Y006833D01*
X006325Y006850D01*
X006325Y007450D01*
X006327Y007467D01*
X006331Y007484D01*
X006338Y007500D01*
X006348Y007514D01*
X006361Y007527D01*
X006375Y007537D01*
X006391Y007544D01*
X006408Y007548D01*
X006425Y007550D01*
X006575Y007550D01*
X006625Y007500D01*
X008025Y007500D01*
X008075Y007550D01*
X008225Y007550D01*
X008242Y007548D01*
X008259Y007544D01*
X008275Y007537D01*
X008289Y007527D01*
X008302Y007514D01*
X008312Y007500D01*
X008319Y007484D01*
X008323Y007467D01*
X008325Y007450D01*
X008325Y006850D01*
X008323Y006833D01*
X008319Y006816D01*
X008312Y006800D01*
X008302Y006786D01*
X008289Y006773D01*
X008275Y006763D01*
X008259Y006756D01*
X008242Y006752D01*
X008225Y006750D01*
X007975Y007800D02*
X006675Y007800D01*
X006649Y007802D01*
X006623Y007807D01*
X006598Y007815D01*
X006575Y007827D01*
X006553Y007841D01*
X006534Y007859D01*
X006516Y007878D01*
X006502Y007900D01*
X006490Y007923D01*
X006482Y007948D01*
X006477Y007974D01*
X006475Y008000D01*
X006475Y008500D01*
X006477Y008526D01*
X006482Y008552D01*
X006490Y008577D01*
X006502Y008600D01*
X006516Y008622D01*
X006534Y008641D01*
X006553Y008659D01*
X006575Y008673D01*
X006598Y008685D01*
X006623Y008693D01*
X006649Y008698D01*
X006675Y008700D01*
X007975Y008700D01*
X008001Y008698D01*
X008027Y008693D01*
X008052Y008685D01*
X008075Y008673D01*
X008097Y008659D01*
X008116Y008641D01*
X008134Y008622D01*
X008148Y008600D01*
X008160Y008577D01*
X008168Y008552D01*
X008173Y008526D01*
X008175Y008500D01*
X008175Y008000D01*
X008173Y007974D01*
X008168Y007948D01*
X008160Y007923D01*
X008148Y007900D01*
X008134Y007878D01*
X008116Y007859D01*
X008097Y007841D01*
X008075Y007827D01*
X008052Y007815D01*
X008027Y007807D01*
X008001Y007802D01*
X007975Y007800D01*
X007925Y008250D02*
X007455Y008250D01*
X007205Y008250D02*
X006725Y008250D01*
X006575Y008950D02*
X006425Y008950D01*
X006408Y008952D01*
X006391Y008956D01*
X006375Y008963D01*
X006361Y008973D01*
X006348Y008986D01*
X006338Y009000D01*
X006331Y009016D01*
X006327Y009033D01*
X006325Y009050D01*
X006325Y009650D01*
X006327Y009667D01*
X006331Y009684D01*
X006338Y009700D01*
X006348Y009714D01*
X006361Y009727D01*
X006375Y009737D01*
X006391Y009744D01*
X006408Y009748D01*
X006425Y009750D01*
X006575Y009750D01*
X006625Y009700D01*
X008025Y009700D01*
X008075Y009750D01*
X008225Y009750D01*
X008242Y009748D01*
X008259Y009744D01*
X008275Y009737D01*
X008289Y009727D01*
X008302Y009714D01*
X008312Y009700D01*
X008319Y009684D01*
X008323Y009667D01*
X008325Y009650D01*
X008325Y009050D01*
X008323Y009033D01*
X008319Y009016D01*
X008312Y009000D01*
X008302Y008986D01*
X008289Y008973D01*
X008275Y008963D01*
X008259Y008956D01*
X008242Y008952D01*
X008225Y008950D01*
X008075Y008950D01*
X008025Y009000D01*
X006625Y009000D01*
X006575Y008950D01*
X006575Y010050D02*
X006425Y010050D01*
X006408Y010052D01*
X006391Y010056D01*
X006375Y010063D01*
X006361Y010073D01*
X006348Y010086D01*
X006338Y010100D01*
X006331Y010116D01*
X006327Y010133D01*
X006325Y010150D01*
X006325Y010750D01*
X006327Y010767D01*
X006331Y010784D01*
X006338Y010800D01*
X006348Y010814D01*
X006361Y010827D01*
X006375Y010837D01*
X006391Y010844D01*
X006408Y010848D01*
X006425Y010850D01*
X006575Y010850D01*
X006625Y010800D01*
X008025Y010800D01*
X008075Y010850D01*
X008225Y010850D01*
X008242Y010848D01*
X008259Y010844D01*
X008275Y010837D01*
X008289Y010827D01*
X008302Y010814D01*
X008312Y010800D01*
X008319Y010784D01*
X008323Y010767D01*
X008325Y010750D01*
X008325Y010150D01*
X008323Y010133D01*
X008319Y010116D01*
X008312Y010100D01*
X008302Y010086D01*
X008289Y010073D01*
X008275Y010063D01*
X008259Y010056D01*
X008242Y010052D01*
X008225Y010050D01*
X008075Y010050D01*
X008025Y010100D01*
X006625Y010100D01*
X006575Y010050D01*
X009578Y012580D02*
X009578Y012914D01*
X009745Y013080D01*
X009912Y012914D01*
X009912Y012580D01*
X010094Y012580D02*
X010094Y013080D01*
X010344Y013080D01*
X010428Y012997D01*
X010428Y012830D01*
X010344Y012747D01*
X010094Y012747D01*
X009912Y012830D02*
X009578Y012830D01*
X010610Y012747D02*
X010860Y012747D01*
X010943Y012830D01*
X010943Y012997D01*
X010860Y013080D01*
X010610Y013080D01*
X010610Y012580D01*
X010776Y012747D02*
X010943Y012580D01*
X011125Y012663D02*
X011209Y012580D01*
X011376Y012580D01*
X011459Y012663D01*
X011459Y012747D01*
X011376Y012830D01*
X011209Y012830D01*
X011125Y012914D01*
X011125Y012997D01*
X011209Y013080D01*
X011376Y013080D01*
X011459Y012997D01*
X012157Y013080D02*
X012323Y013080D01*
X012240Y013080D02*
X012240Y012580D01*
X012157Y012580D02*
X012323Y012580D01*
X012500Y012580D02*
X012834Y013080D01*
X013016Y013080D02*
X013350Y013080D01*
X013183Y012830D02*
X013016Y012830D01*
X013016Y012580D02*
X013016Y013080D01*
X016475Y010600D02*
X016501Y010598D01*
X016527Y010593D01*
X016552Y010585D01*
X016575Y010573D01*
X016597Y010559D01*
X016616Y010541D01*
X016634Y010522D01*
X016648Y010500D01*
X016660Y010477D01*
X016668Y010452D01*
X016673Y010426D01*
X016675Y010400D01*
X016675Y009100D01*
X016673Y009074D01*
X016668Y009048D01*
X016660Y009023D01*
X016648Y009000D01*
X016634Y008978D01*
X016616Y008959D01*
X016597Y008941D01*
X016575Y008927D01*
X016552Y008915D01*
X016527Y008907D01*
X016501Y008902D01*
X016475Y008900D01*
D14*
X008400Y009350D03*
X008400Y010450D03*
X006250Y010450D03*
X006250Y009350D03*
X006250Y007150D03*
X008400Y007150D03*
X008300Y000950D03*
X006150Y000950D03*
D15*
X010625Y001275D03*
X011625Y001275D03*
X012625Y001275D03*
X012625Y003425D03*
X011625Y003425D03*
X010625Y003425D03*
X016125Y005075D03*
X016125Y007225D03*
D16*
X016225Y009630D02*
X015925Y009630D01*
X016225Y009630D02*
X016525Y009630D01*
X016525Y009880D02*
X016225Y009880D01*
X015925Y009880D01*
X007455Y008500D02*
X007455Y008250D01*
X007455Y008000D01*
X007205Y008000D02*
X007205Y008250D01*
X007205Y008500D01*
X017875Y002480D02*
X018125Y002480D01*
X018375Y002480D01*
X018375Y002230D02*
X018125Y002230D01*
X017875Y002230D01*
D17*
X018125Y001325D03*
X018125Y003375D03*
D18*
X008350Y008250D03*
X006300Y008250D03*
D19*
X006545Y005250D02*
X006534Y005275D01*
X006520Y005298D01*
X006502Y005319D01*
X006482Y005337D01*
X006460Y005353D01*
X006436Y005365D01*
X006410Y005373D01*
X006383Y005378D01*
X006356Y005379D01*
X006329Y005376D01*
X006303Y005370D01*
X006277Y005360D01*
X006254Y005346D01*
X006232Y005329D01*
X006214Y005310D01*
X006198Y005288D01*
X006185Y005264D01*
X006176Y005239D01*
X006170Y005212D01*
X006168Y005185D01*
X006170Y005158D01*
X006176Y005131D01*
X006185Y005106D01*
X006198Y005082D01*
X006214Y005060D01*
X006232Y005041D01*
X006254Y005024D01*
X006277Y005010D01*
X006303Y005000D01*
X006329Y004994D01*
X006356Y004991D01*
X006383Y004992D01*
X006410Y004997D01*
X006436Y005005D01*
X006460Y005017D01*
X006482Y005033D01*
X006502Y005051D01*
X006520Y005072D01*
X006534Y005095D01*
X006545Y005120D01*
X006550Y005163D02*
X006552Y005186D01*
X006558Y005208D01*
X006567Y005230D01*
X006580Y005249D01*
X006595Y005266D01*
X006613Y005280D01*
X006634Y005291D01*
X006656Y005299D01*
X006678Y005303D01*
X006702Y005303D01*
X006724Y005299D01*
X006746Y005291D01*
X006767Y005280D01*
X006785Y005266D01*
X006800Y005249D01*
X006813Y005230D01*
X006822Y005208D01*
X006828Y005186D01*
X006830Y005163D01*
X006828Y005140D01*
X006822Y005118D01*
X006813Y005096D01*
X006800Y005077D01*
X006785Y005060D01*
X006767Y005046D01*
X006746Y005035D01*
X006724Y005027D01*
X006702Y005023D01*
X006678Y005023D01*
X006656Y005027D01*
X006634Y005035D01*
X006613Y005046D01*
X006595Y005060D01*
X006580Y005077D01*
X006567Y005096D01*
X006558Y005118D01*
X006552Y005140D01*
X006550Y005163D01*
X006260Y005163D02*
X006262Y005186D01*
X006268Y005208D01*
X006277Y005230D01*
X006290Y005249D01*
X006305Y005266D01*
X006323Y005280D01*
X006344Y005291D01*
X006366Y005299D01*
X006388Y005303D01*
X006412Y005303D01*
X006434Y005299D01*
X006456Y005291D01*
X006477Y005280D01*
X006495Y005266D01*
X006510Y005249D01*
X006523Y005230D01*
X006532Y005208D01*
X006538Y005186D01*
X006540Y005163D01*
X006538Y005140D01*
X006532Y005118D01*
X006523Y005096D01*
X006510Y005077D01*
X006495Y005060D01*
X006477Y005046D01*
X006456Y005035D01*
X006434Y005027D01*
X006412Y005023D01*
X006388Y005023D01*
X006366Y005027D01*
X006344Y005035D01*
X006323Y005046D01*
X006305Y005060D01*
X006290Y005077D01*
X006277Y005096D01*
X006268Y005118D01*
X006262Y005140D01*
X006260Y005163D01*
X006555Y005120D02*
X006566Y005095D01*
X006580Y005072D01*
X006598Y005051D01*
X006618Y005033D01*
X006640Y005017D01*
X006664Y005005D01*
X006690Y004997D01*
X006717Y004992D01*
X006744Y004991D01*
X006771Y004994D01*
X006797Y005000D01*
X006823Y005010D01*
X006846Y005024D01*
X006868Y005041D01*
X006886Y005060D01*
X006902Y005082D01*
X006915Y005106D01*
X006924Y005131D01*
X006930Y005158D01*
X006932Y005185D01*
X006930Y005212D01*
X006924Y005239D01*
X006915Y005264D01*
X006902Y005288D01*
X006886Y005310D01*
X006868Y005329D01*
X006846Y005346D01*
X006823Y005360D01*
X006797Y005370D01*
X006771Y005376D01*
X006744Y005379D01*
X006717Y005378D01*
X006690Y005373D01*
X006664Y005365D01*
X006640Y005353D01*
X006618Y005337D01*
X006598Y005319D01*
X006580Y005298D01*
X006566Y005275D01*
X006555Y005250D01*
D20*
X005984Y005272D02*
X005503Y005272D01*
X005464Y005278D02*
X005748Y005237D01*
X005772Y005156D01*
X005805Y005078D01*
X005846Y005005D01*
X005670Y004780D01*
X005895Y004555D01*
X005984Y004626D01*
X005984Y005400D01*
X005987Y005492D01*
X006005Y005582D01*
X006038Y005668D01*
X006084Y005747D01*
X006143Y005818D01*
X006212Y005878D01*
X006290Y005926D01*
X006375Y005960D01*
X006465Y005980D01*
X006428Y006007D01*
X006399Y006042D01*
X006378Y006082D01*
X006367Y006126D01*
X006366Y006171D01*
X006375Y006216D01*
X006394Y006257D01*
X006367Y006257D01*
X006394Y006257D02*
X006422Y006293D01*
X006457Y006322D01*
X006498Y006342D01*
X006542Y006352D01*
X006588Y006352D01*
X006632Y006342D01*
X006673Y006322D01*
X006708Y006293D01*
X006736Y006257D01*
X006755Y006257D01*
X006736Y006257D02*
X006755Y006216D01*
X006764Y006171D01*
X006763Y006126D01*
X006752Y006082D01*
X006731Y006042D01*
X006702Y006007D01*
X006665Y005980D01*
X006665Y005970D01*
X006753Y005950D01*
X006836Y005916D01*
X006913Y005869D01*
X006981Y005810D01*
X007038Y005741D01*
X007084Y005663D01*
X007115Y005578D01*
X007133Y005490D01*
X007136Y005400D01*
X007136Y004606D01*
X007215Y004555D01*
X007430Y004770D01*
X007264Y004995D01*
X007318Y005107D01*
X007352Y005227D01*
X007646Y005278D01*
X007646Y005592D01*
X007352Y005623D01*
X007317Y005738D01*
X007264Y005845D01*
X007440Y006090D01*
X007215Y006305D01*
X006980Y006139D01*
X006873Y006197D01*
X006758Y006237D01*
X006717Y006521D01*
X006403Y006521D01*
X006362Y006217D01*
X006252Y006182D01*
X006150Y006129D01*
X005885Y006305D01*
X005680Y006100D01*
X005856Y005855D01*
X005798Y005748D01*
X005758Y005633D01*
X005464Y005602D01*
X005464Y005278D01*
X005464Y005371D02*
X005984Y005371D01*
X005987Y005469D02*
X005464Y005469D01*
X005464Y005568D02*
X006003Y005568D01*
X006037Y005666D02*
X005769Y005666D01*
X005806Y005765D02*
X006099Y005765D01*
X006195Y005863D02*
X005851Y005863D01*
X005780Y005962D02*
X006382Y005962D01*
X006389Y006060D02*
X005709Y006060D01*
X005739Y006159D02*
X006105Y006159D01*
X006207Y006159D02*
X006366Y006159D01*
X006380Y006356D02*
X006741Y006356D01*
X006727Y006454D02*
X006394Y006454D01*
X006764Y006159D02*
X006944Y006159D01*
X007008Y006159D02*
X007368Y006159D01*
X007419Y006060D02*
X006741Y006060D01*
X006703Y005962D02*
X007348Y005962D01*
X007277Y005863D02*
X006920Y005863D01*
X007019Y005765D02*
X007304Y005765D01*
X007339Y005666D02*
X007082Y005666D01*
X007117Y005568D02*
X007646Y005568D01*
X007646Y005469D02*
X007133Y005469D01*
X007136Y005371D02*
X007646Y005371D01*
X007613Y005272D02*
X007136Y005272D01*
X007136Y005174D02*
X007337Y005174D01*
X007302Y005075D02*
X007136Y005075D01*
X007136Y004977D02*
X007277Y004977D01*
X007350Y004878D02*
X007136Y004878D01*
X007136Y004780D02*
X007423Y004780D01*
X007341Y004681D02*
X007136Y004681D01*
X007172Y004583D02*
X007242Y004583D01*
X005984Y004681D02*
X005769Y004681D01*
X005671Y004780D02*
X005984Y004780D01*
X005984Y004878D02*
X005747Y004878D01*
X005824Y004977D02*
X005984Y004977D01*
X005984Y005075D02*
X005807Y005075D01*
X005767Y005174D02*
X005984Y005174D01*
X005930Y004583D02*
X005868Y004583D01*
X005837Y006257D02*
X005957Y006257D01*
X007147Y006257D02*
X007265Y006257D01*
M02*
