G75*
%MOIN*%
%OFA0B0*%
%FSLAX24Y24*%
%IPPOS*%
%LPD*%
%AMOC8*
5,1,8,0,0,1.08239X$1,22.5*
%
%ADD10C,0.0591*%
%ADD11C,0.0700*%
%ADD12OC8,0.0480*%
%ADD13C,0.0650*%
%ADD14C,0.0480*%
%ADD15C,0.0500*%
%ADD16C,0.0600*%
%ADD17C,0.0160*%
%ADD18C,0.0270*%
D10*
X004025Y009350D03*
X004025Y010450D03*
D11*
X004125Y002050D03*
X004125Y003050D03*
X004125Y004950D03*
X004125Y005950D03*
D12*
X005825Y007150D03*
X005825Y008250D03*
X005825Y009350D03*
X005825Y010450D03*
X008825Y010450D03*
X008825Y009350D03*
X008825Y008250D03*
X008825Y007150D03*
X010625Y003850D03*
X011625Y003850D03*
X012625Y003850D03*
X016125Y004650D03*
X018125Y003850D03*
X018125Y000850D03*
X012625Y000850D03*
X011625Y000850D03*
X010625Y000850D03*
X008725Y000950D03*
X005725Y000950D03*
X016125Y007650D03*
X016225Y008750D03*
X016225Y010750D03*
D13*
X018525Y010250D03*
X018525Y009250D03*
X018525Y008250D03*
X018525Y007250D03*
X018525Y006250D03*
X018525Y005250D03*
X004025Y007250D03*
X004025Y008250D03*
X004025Y011650D03*
X004025Y012650D03*
D14*
X010625Y009930D02*
X010625Y009450D01*
X011625Y009450D02*
X011625Y009930D01*
X011625Y006450D02*
X011625Y005970D01*
X010625Y005970D02*
X010625Y006450D01*
X009425Y005930D02*
X009425Y005450D01*
X008425Y005450D02*
X008425Y005930D01*
X008425Y002450D02*
X008425Y001970D01*
X009425Y001970D02*
X009425Y002450D01*
D15*
X013925Y003850D03*
X014925Y003850D03*
X015925Y003850D03*
X016925Y003850D03*
X016925Y000850D03*
X015925Y000850D03*
X014925Y000850D03*
X013925Y000850D03*
D16*
X014025Y004850D03*
X013025Y006850D03*
X015025Y006850D03*
X014025Y008750D03*
X013025Y010750D03*
X015025Y010750D03*
D17*
X015025Y009750D01*
X016025Y008750D01*
X016225Y008750D01*
X016825Y008150D02*
X015325Y008150D01*
X013425Y006250D01*
X012725Y006250D01*
X012525Y006450D01*
X011625Y006450D01*
X011625Y004850D01*
X010625Y003850D01*
X009625Y003850D02*
X007225Y003850D01*
X006125Y004950D01*
X004125Y004950D01*
X004125Y005950D02*
X004625Y005950D01*
X005825Y007150D01*
X005825Y008250D02*
X004025Y008250D01*
X004025Y009350D02*
X005825Y009350D01*
X005825Y010450D02*
X004025Y010450D01*
X004025Y011650D02*
X005325Y011650D01*
X005725Y011250D01*
X011325Y011250D01*
X013825Y008750D01*
X014025Y008750D01*
X016125Y007650D02*
X016125Y006050D01*
X014925Y004850D01*
X015925Y003850D01*
X016125Y004650D02*
X016925Y003850D01*
X016125Y004650D02*
X016725Y005250D01*
X018525Y005250D01*
X018525Y007250D02*
X017725Y007250D01*
X016825Y008150D01*
X018525Y008250D02*
X018725Y008250D01*
X019125Y007850D01*
X019125Y001850D01*
X018125Y000850D01*
X016925Y000850D01*
X016425Y001350D01*
X012125Y001350D01*
X011625Y000850D01*
X011125Y001350D01*
X010125Y001350D01*
X010125Y006150D01*
X009125Y007150D01*
X008825Y007150D01*
X008925Y006550D02*
X008525Y006550D01*
X008125Y006950D01*
X008125Y008650D01*
X008825Y009350D01*
X008825Y008250D02*
X010925Y008250D01*
X012325Y006850D01*
X013025Y006850D01*
X014025Y004850D02*
X014925Y004850D01*
X014925Y003850D02*
X014325Y003250D01*
X013225Y003250D01*
X012625Y003850D01*
X011625Y003850D01*
X009425Y002650D02*
X009425Y002450D01*
X009425Y002650D02*
X009025Y003050D01*
X008125Y003050D01*
X006925Y001850D01*
X005725Y001850D01*
X004525Y003050D01*
X004125Y003050D01*
X004125Y002050D02*
X004425Y002050D01*
X005525Y000950D01*
X005725Y000950D01*
X008725Y000950D02*
X009725Y000950D01*
X010125Y001350D01*
X009425Y005450D02*
X009425Y006050D01*
X008925Y006550D01*
X011625Y009450D02*
X011725Y009850D01*
X011125Y010450D01*
X008825Y010450D01*
X016225Y010750D02*
X018025Y010750D01*
X018525Y010250D01*
D18*
X009625Y003850D03*
M02*
