G75*
%MOIN*%
%OFA0B0*%
%FSLAX24Y24*%
%IPPOS*%
%LPD*%
%AMOC8*
5,1,8,0,0,1.08239X$1,22.5*
%
%ADD10C,0.0591*%
%ADD11C,0.0700*%
%ADD12OC8,0.0480*%
%ADD13C,0.0650*%
%ADD14C,0.0480*%
%ADD15C,0.0500*%
%ADD16C,0.0600*%
%ADD17C,0.0100*%
%ADD18C,0.0270*%
%ADD19C,0.0160*%
D10*
X004025Y009350D03*
X004025Y010450D03*
D11*
X004125Y005950D03*
X004125Y004950D03*
X004125Y003050D03*
X004125Y002050D03*
D12*
X005725Y000950D03*
X008725Y000950D03*
X010625Y000850D03*
X011625Y000850D03*
X012625Y000850D03*
X012625Y003850D03*
X011625Y003850D03*
X010625Y003850D03*
X008825Y007150D03*
X008825Y008250D03*
X008825Y009350D03*
X008825Y010450D03*
X005825Y010450D03*
X005825Y009350D03*
X005825Y008250D03*
X005825Y007150D03*
X016125Y007650D03*
X016225Y008750D03*
X016225Y010750D03*
X016125Y004650D03*
X018125Y003850D03*
X018125Y000850D03*
D13*
X018525Y005250D03*
X018525Y006250D03*
X018525Y007250D03*
X018525Y008250D03*
X018525Y009250D03*
X018525Y010250D03*
X004025Y011650D03*
X004025Y012650D03*
X004025Y008250D03*
X004025Y007250D03*
D14*
X008425Y005930D02*
X008425Y005450D01*
X009425Y005450D02*
X009425Y005930D01*
X010625Y005970D02*
X010625Y006450D01*
X011625Y006450D02*
X011625Y005970D01*
X011625Y009450D02*
X011625Y009930D01*
X010625Y009930D02*
X010625Y009450D01*
X009425Y002450D02*
X009425Y001970D01*
X008425Y001970D02*
X008425Y002450D01*
D15*
X013925Y003850D03*
X014925Y003850D03*
X015925Y003850D03*
X016925Y003850D03*
X016925Y000850D03*
X015925Y000850D03*
X014925Y000850D03*
X013925Y000850D03*
D16*
X014025Y004850D03*
X013025Y006850D03*
X015025Y006850D03*
X014025Y008750D03*
X013025Y010750D03*
X015025Y010750D03*
D17*
X003475Y013200D02*
X003475Y000300D01*
X019275Y000300D01*
X019275Y013200D01*
X003475Y013200D01*
X003475Y013152D02*
X019275Y013152D01*
X019275Y013054D02*
X004277Y013054D01*
X004274Y013056D02*
X004207Y013090D01*
X004136Y013113D01*
X004075Y013123D01*
X004075Y012700D01*
X004498Y012700D01*
X004488Y012761D01*
X004465Y012832D01*
X004431Y012899D01*
X004387Y012959D01*
X004334Y013012D01*
X004274Y013056D01*
X004390Y012955D02*
X006189Y012955D01*
X006083Y012911D02*
X005864Y012692D01*
X005745Y012405D01*
X005745Y012095D01*
X005864Y011808D01*
X006083Y011589D01*
X006370Y011470D01*
X006680Y011470D01*
X006967Y011589D01*
X007186Y011808D01*
X007305Y012095D01*
X007305Y012405D01*
X007186Y012692D01*
X006967Y012911D01*
X006680Y013030D01*
X006370Y013030D01*
X006083Y012911D01*
X006029Y012857D02*
X004453Y012857D01*
X004489Y012758D02*
X005930Y012758D01*
X005850Y012660D02*
X004075Y012660D01*
X004075Y012700D02*
X004075Y012600D01*
X004498Y012600D01*
X004488Y012539D01*
X004465Y012468D01*
X004431Y012401D01*
X004387Y012341D01*
X004334Y012288D01*
X004274Y012244D01*
X004207Y012210D01*
X004136Y012187D01*
X004075Y012177D01*
X004075Y012600D01*
X003975Y012600D01*
X003975Y012177D01*
X003914Y012187D01*
X003843Y012210D01*
X003776Y012244D01*
X003716Y012288D01*
X003663Y012341D01*
X003619Y012401D01*
X003585Y012468D01*
X003562Y012539D01*
X003552Y012600D01*
X003975Y012600D01*
X003975Y012700D01*
X003975Y013123D01*
X003914Y013113D01*
X003843Y013090D01*
X003776Y013056D01*
X003716Y013012D01*
X003663Y012959D01*
X003619Y012899D01*
X003585Y012832D01*
X003562Y012761D01*
X003552Y012700D01*
X003975Y012700D01*
X004075Y012700D01*
X004075Y012758D02*
X003975Y012758D01*
X003975Y012660D02*
X003475Y012660D01*
X003475Y012758D02*
X003561Y012758D01*
X003597Y012857D02*
X003475Y012857D01*
X003475Y012955D02*
X003660Y012955D01*
X003773Y013054D02*
X003475Y013054D01*
X003475Y012561D02*
X003558Y012561D01*
X003588Y012463D02*
X003475Y012463D01*
X003475Y012364D02*
X003646Y012364D01*
X003746Y012266D02*
X003475Y012266D01*
X003475Y012167D02*
X005745Y012167D01*
X005745Y012266D02*
X004304Y012266D01*
X004404Y012364D02*
X005745Y012364D01*
X005769Y012463D02*
X004462Y012463D01*
X004492Y012561D02*
X005810Y012561D01*
X005756Y012069D02*
X004255Y012069D01*
X004294Y012053D02*
X004119Y012125D01*
X003931Y012125D01*
X003756Y012053D01*
X003622Y011919D01*
X003550Y011744D01*
X003550Y011556D01*
X003622Y011381D01*
X003756Y011247D01*
X003931Y011175D01*
X004119Y011175D01*
X004294Y011247D01*
X004428Y011381D01*
X004500Y011556D01*
X004500Y011744D01*
X004428Y011919D01*
X004294Y012053D01*
X004376Y011970D02*
X005797Y011970D01*
X005838Y011872D02*
X004447Y011872D01*
X004488Y011773D02*
X005899Y011773D01*
X005997Y011675D02*
X004500Y011675D01*
X004500Y011576D02*
X006114Y011576D01*
X006352Y011478D02*
X004467Y011478D01*
X004426Y011379D02*
X019275Y011379D01*
X019275Y011281D02*
X004327Y011281D01*
X004136Y011182D02*
X012898Y011182D01*
X012920Y011189D02*
X012852Y011167D01*
X012789Y011135D01*
X012732Y011093D01*
X012682Y011043D01*
X012640Y010986D01*
X012608Y010923D01*
X012586Y010855D01*
X012577Y010800D01*
X012975Y010800D01*
X012975Y011198D01*
X012920Y011189D01*
X012975Y011182D02*
X013075Y011182D01*
X013075Y011198D02*
X013075Y010800D01*
X012975Y010800D01*
X012975Y010700D01*
X012577Y010700D01*
X012586Y010645D01*
X012608Y010577D01*
X012640Y010514D01*
X012682Y010457D01*
X012732Y010407D01*
X012789Y010365D01*
X012852Y010333D01*
X012920Y010311D01*
X012975Y010302D01*
X012975Y010700D01*
X013075Y010700D01*
X013075Y010800D01*
X013473Y010800D01*
X013464Y010855D01*
X013442Y010923D01*
X013410Y010986D01*
X013368Y011043D01*
X013318Y011093D01*
X013261Y011135D01*
X013198Y011167D01*
X013130Y011189D01*
X013075Y011198D01*
X013152Y011182D02*
X014892Y011182D01*
X014935Y011200D02*
X014770Y011131D01*
X014644Y011005D01*
X014575Y010840D01*
X014575Y010660D01*
X014644Y010495D01*
X014770Y010369D01*
X014935Y010300D01*
X015115Y010300D01*
X015280Y010369D01*
X015406Y010495D01*
X015475Y010660D01*
X015475Y010840D01*
X015406Y011005D01*
X015280Y011131D01*
X015115Y011200D01*
X014935Y011200D01*
X015158Y011182D02*
X019275Y011182D01*
X019275Y011084D02*
X016443Y011084D01*
X016387Y011140D02*
X016063Y011140D01*
X015835Y010912D01*
X015835Y010588D01*
X016063Y010360D01*
X016387Y010360D01*
X016615Y010588D01*
X016615Y010912D01*
X016387Y011140D01*
X016542Y010985D02*
X019275Y010985D01*
X019275Y010887D02*
X016615Y010887D01*
X016615Y010788D02*
X019275Y010788D01*
X019275Y010690D02*
X018705Y010690D01*
X018619Y010725D02*
X018431Y010725D01*
X018256Y010653D01*
X018122Y010519D01*
X018050Y010344D01*
X018050Y010156D01*
X018122Y009981D01*
X018256Y009847D01*
X018431Y009775D01*
X018619Y009775D01*
X018794Y009847D01*
X018928Y009981D01*
X019000Y010156D01*
X019000Y010344D01*
X018928Y010519D01*
X018794Y010653D01*
X018619Y010725D01*
X018855Y010591D02*
X019275Y010591D01*
X019275Y010493D02*
X018938Y010493D01*
X018979Y010394D02*
X019275Y010394D01*
X019275Y010296D02*
X019000Y010296D01*
X019000Y010197D02*
X019275Y010197D01*
X019275Y010099D02*
X018976Y010099D01*
X018935Y010000D02*
X019275Y010000D01*
X019275Y009902D02*
X018848Y009902D01*
X018687Y009803D02*
X019275Y009803D01*
X019275Y009705D02*
X018663Y009705D01*
X018636Y009713D02*
X018575Y009723D01*
X018575Y009300D01*
X018998Y009300D01*
X018988Y009361D01*
X018965Y009432D01*
X018931Y009499D01*
X018887Y009559D01*
X018834Y009612D01*
X018774Y009656D01*
X018707Y009690D01*
X018636Y009713D01*
X018575Y009705D02*
X018475Y009705D01*
X018475Y009723D02*
X018414Y009713D01*
X018343Y009690D01*
X018276Y009656D01*
X018216Y009612D01*
X018163Y009559D01*
X018119Y009499D01*
X018085Y009432D01*
X018062Y009361D01*
X018052Y009300D01*
X018475Y009300D01*
X018475Y009723D01*
X018387Y009705D02*
X012015Y009705D01*
X012015Y009803D02*
X018363Y009803D01*
X018202Y009902D02*
X012015Y009902D01*
X012015Y010000D02*
X018115Y010000D01*
X018074Y010099D02*
X011977Y010099D01*
X011956Y010151D02*
X012015Y010008D01*
X012015Y009372D01*
X011956Y009229D01*
X011846Y009119D01*
X011703Y009060D01*
X011547Y009060D01*
X011404Y009119D01*
X011294Y009229D01*
X011235Y009372D01*
X011235Y010008D01*
X011294Y010151D01*
X011404Y010261D01*
X011547Y010320D01*
X011703Y010320D01*
X011846Y010261D01*
X011956Y010151D01*
X011910Y010197D02*
X018050Y010197D01*
X018050Y010296D02*
X011762Y010296D01*
X011488Y010296D02*
X010762Y010296D01*
X010739Y010305D02*
X010663Y010320D01*
X010655Y010320D01*
X010655Y009480D01*
X011015Y009480D01*
X011015Y009968D01*
X011000Y010044D01*
X010971Y010115D01*
X010928Y010179D01*
X010874Y010233D01*
X010810Y010276D01*
X010739Y010305D01*
X010655Y010296D02*
X010595Y010296D01*
X010595Y010320D02*
X010587Y010320D01*
X010511Y010305D01*
X010440Y010276D01*
X010376Y010233D01*
X010322Y010179D01*
X010279Y010115D01*
X010250Y010044D01*
X010235Y009968D01*
X010235Y009480D01*
X010595Y009480D01*
X010595Y010320D01*
X010488Y010296D02*
X009215Y010296D01*
X009215Y010288D02*
X008987Y010060D01*
X008663Y010060D01*
X008435Y010288D01*
X008435Y010612D01*
X008663Y010840D01*
X008987Y010840D01*
X009215Y010612D01*
X009215Y010288D01*
X009215Y010394D02*
X012749Y010394D01*
X012656Y010493D02*
X009215Y010493D01*
X009215Y010591D02*
X012603Y010591D01*
X012579Y010690D02*
X009137Y010690D01*
X009039Y010788D02*
X012975Y010788D01*
X012975Y010690D02*
X013075Y010690D01*
X013075Y010700D02*
X013075Y010302D01*
X013130Y010311D01*
X013198Y010333D01*
X013261Y010365D01*
X013318Y010407D01*
X013368Y010457D01*
X013410Y010514D01*
X013442Y010577D01*
X013464Y010645D01*
X013473Y010700D01*
X013075Y010700D01*
X013075Y010788D02*
X014575Y010788D01*
X014575Y010690D02*
X013471Y010690D01*
X013447Y010591D02*
X014604Y010591D01*
X014646Y010493D02*
X013394Y010493D01*
X013301Y010394D02*
X014745Y010394D01*
X015305Y010394D02*
X016029Y010394D01*
X015931Y010493D02*
X015404Y010493D01*
X015446Y010591D02*
X015835Y010591D01*
X015835Y010690D02*
X015475Y010690D01*
X015475Y010788D02*
X015835Y010788D01*
X015835Y010887D02*
X015456Y010887D01*
X015415Y010985D02*
X015908Y010985D01*
X016007Y011084D02*
X015328Y011084D01*
X014722Y011084D02*
X013328Y011084D01*
X013410Y010985D02*
X014635Y010985D01*
X014594Y010887D02*
X013454Y010887D01*
X013075Y010887D02*
X012975Y010887D01*
X012975Y010985D02*
X013075Y010985D01*
X013075Y011084D02*
X012975Y011084D01*
X012722Y011084D02*
X003475Y011084D01*
X003475Y011182D02*
X003914Y011182D01*
X003723Y011281D02*
X003475Y011281D01*
X003475Y011379D02*
X003624Y011379D01*
X003583Y011478D02*
X003475Y011478D01*
X003475Y011576D02*
X003550Y011576D01*
X003550Y011675D02*
X003475Y011675D01*
X003475Y011773D02*
X003562Y011773D01*
X003603Y011872D02*
X003475Y011872D01*
X003475Y011970D02*
X003674Y011970D01*
X003795Y012069D02*
X003475Y012069D01*
X003975Y012266D02*
X004075Y012266D01*
X004075Y012364D02*
X003975Y012364D01*
X003975Y012463D02*
X004075Y012463D01*
X004075Y012561D02*
X003975Y012561D01*
X003975Y012857D02*
X004075Y012857D01*
X004075Y012955D02*
X003975Y012955D01*
X003975Y013054D02*
X004075Y013054D01*
X006698Y011478D02*
X018252Y011478D01*
X018270Y011470D02*
X018580Y011470D01*
X018867Y011589D01*
X019086Y011808D01*
X019205Y012095D01*
X019205Y012405D01*
X019086Y012692D01*
X018867Y012911D01*
X018580Y013030D01*
X018270Y013030D01*
X017983Y012911D01*
X017764Y012692D01*
X017645Y012405D01*
X017645Y012095D01*
X017764Y011808D01*
X017983Y011589D01*
X018270Y011470D01*
X018014Y011576D02*
X006936Y011576D01*
X007053Y011675D02*
X017897Y011675D01*
X017799Y011773D02*
X007151Y011773D01*
X007212Y011872D02*
X017738Y011872D01*
X017697Y011970D02*
X007253Y011970D01*
X007294Y012069D02*
X017656Y012069D01*
X017645Y012167D02*
X007305Y012167D01*
X007305Y012266D02*
X017645Y012266D01*
X017645Y012364D02*
X007305Y012364D01*
X007281Y012463D02*
X017669Y012463D01*
X017710Y012561D02*
X007240Y012561D01*
X007200Y012660D02*
X017750Y012660D01*
X017830Y012758D02*
X007120Y012758D01*
X007021Y012857D02*
X017929Y012857D01*
X018089Y012955D02*
X006861Y012955D01*
X005987Y010840D02*
X005663Y010840D01*
X005435Y010612D01*
X005435Y010288D01*
X005663Y010060D01*
X005987Y010060D01*
X006215Y010288D01*
X006215Y010612D01*
X005987Y010840D01*
X006039Y010788D02*
X008611Y010788D01*
X008513Y010690D02*
X006137Y010690D01*
X006215Y010591D02*
X008435Y010591D01*
X008435Y010493D02*
X006215Y010493D01*
X006215Y010394D02*
X008435Y010394D01*
X008435Y010296D02*
X006215Y010296D01*
X006124Y010197D02*
X008526Y010197D01*
X008625Y010099D02*
X006025Y010099D01*
X005987Y009740D02*
X005663Y009740D01*
X005435Y009512D01*
X005435Y009188D01*
X005663Y008960D01*
X005987Y008960D01*
X006215Y009188D01*
X006215Y009512D01*
X005987Y009740D01*
X006022Y009705D02*
X008628Y009705D01*
X008663Y009740D02*
X008435Y009512D01*
X008435Y009188D01*
X008663Y008960D01*
X008987Y008960D01*
X009215Y009188D01*
X009215Y009512D01*
X008987Y009740D01*
X008663Y009740D01*
X008529Y009606D02*
X006121Y009606D01*
X006215Y009508D02*
X008435Y009508D01*
X008435Y009409D02*
X006215Y009409D01*
X006215Y009311D02*
X008435Y009311D01*
X008435Y009212D02*
X006215Y009212D01*
X006140Y009114D02*
X008510Y009114D01*
X008608Y009015D02*
X006042Y009015D01*
X005608Y009015D02*
X004320Y009015D01*
X004277Y008973D02*
X004114Y008905D01*
X003936Y008905D01*
X003773Y008973D01*
X003648Y009098D01*
X003580Y009261D01*
X003580Y009439D01*
X003648Y009602D01*
X003773Y009727D01*
X003936Y009795D01*
X004114Y009795D01*
X004277Y009727D01*
X004402Y009602D01*
X004470Y009439D01*
X004470Y009261D01*
X004402Y009098D01*
X004277Y008973D01*
X004142Y008917D02*
X013607Y008917D01*
X013575Y008840D02*
X013644Y009005D01*
X013770Y009131D01*
X013935Y009200D01*
X014115Y009200D01*
X014280Y009131D01*
X014406Y009005D01*
X014475Y008840D01*
X014475Y008660D01*
X014406Y008495D01*
X014280Y008369D01*
X014115Y008300D01*
X013935Y008300D01*
X013770Y008369D01*
X013644Y008495D01*
X013575Y008660D01*
X013575Y008840D01*
X013575Y008818D02*
X003475Y008818D01*
X003475Y008720D02*
X003918Y008720D01*
X003931Y008725D02*
X003756Y008653D01*
X003622Y008519D01*
X003550Y008344D01*
X003550Y008156D01*
X003622Y007981D01*
X003756Y007847D01*
X003931Y007775D01*
X004119Y007775D01*
X004294Y007847D01*
X004428Y007981D01*
X004500Y008156D01*
X004500Y008344D01*
X004428Y008519D01*
X004294Y008653D01*
X004119Y008725D01*
X003931Y008725D01*
X004132Y008720D02*
X013575Y008720D01*
X013591Y008621D02*
X009006Y008621D01*
X008987Y008640D02*
X009215Y008412D01*
X009215Y008088D01*
X008987Y007860D01*
X008663Y007860D01*
X008435Y008088D01*
X008435Y008412D01*
X008663Y008640D01*
X008987Y008640D01*
X009104Y008523D02*
X013632Y008523D01*
X013715Y008424D02*
X009203Y008424D01*
X009215Y008326D02*
X013874Y008326D01*
X014176Y008326D02*
X018050Y008326D01*
X018050Y008344D02*
X018050Y008156D01*
X018122Y007981D01*
X018256Y007847D01*
X018431Y007775D01*
X018619Y007775D01*
X018794Y007847D01*
X018928Y007981D01*
X019000Y008156D01*
X019000Y008344D01*
X018928Y008519D01*
X018794Y008653D01*
X018619Y008725D01*
X018431Y008725D01*
X018256Y008653D01*
X018122Y008519D01*
X018050Y008344D01*
X018083Y008424D02*
X016451Y008424D01*
X016387Y008360D02*
X016615Y008588D01*
X016615Y008912D01*
X016387Y009140D01*
X016063Y009140D01*
X015835Y008912D01*
X015835Y008588D01*
X016063Y008360D01*
X016387Y008360D01*
X016549Y008523D02*
X018126Y008523D01*
X018225Y008621D02*
X016615Y008621D01*
X016615Y008720D02*
X018418Y008720D01*
X018414Y008787D02*
X018343Y008810D01*
X018276Y008844D01*
X018216Y008888D01*
X018163Y008941D01*
X018119Y009001D01*
X018085Y009068D01*
X018062Y009139D01*
X018052Y009200D01*
X018475Y009200D01*
X018575Y009200D01*
X018575Y009300D01*
X018475Y009300D01*
X018475Y009200D01*
X018475Y008777D01*
X018414Y008787D01*
X018475Y008818D02*
X018575Y008818D01*
X018575Y008777D02*
X018636Y008787D01*
X018707Y008810D01*
X018774Y008844D01*
X018834Y008888D01*
X018887Y008941D01*
X018931Y009001D01*
X018965Y009068D01*
X018988Y009139D01*
X018998Y009200D01*
X018575Y009200D01*
X018575Y008777D01*
X018632Y008720D02*
X019275Y008720D01*
X019275Y008818D02*
X018723Y008818D01*
X018863Y008917D02*
X019275Y008917D01*
X019275Y009015D02*
X018938Y009015D01*
X018980Y009114D02*
X019275Y009114D01*
X019275Y009212D02*
X018575Y009212D01*
X018575Y009114D02*
X018475Y009114D01*
X018475Y009212D02*
X011939Y009212D01*
X011989Y009311D02*
X018054Y009311D01*
X018077Y009409D02*
X012015Y009409D01*
X012015Y009508D02*
X018125Y009508D01*
X018210Y009606D02*
X012015Y009606D01*
X011832Y009114D02*
X013752Y009114D01*
X013654Y009015D02*
X009042Y009015D01*
X009140Y009114D02*
X010427Y009114D01*
X010440Y009104D02*
X010511Y009075D01*
X010587Y009060D01*
X010595Y009060D01*
X010595Y009420D01*
X010655Y009420D01*
X010655Y009480D01*
X010595Y009480D01*
X010595Y009420D01*
X010235Y009420D01*
X010235Y009412D01*
X010250Y009336D01*
X010279Y009265D01*
X010322Y009201D01*
X010376Y009147D01*
X010440Y009104D01*
X010595Y009114D02*
X010655Y009114D01*
X010655Y009060D02*
X010663Y009060D01*
X010739Y009075D01*
X010810Y009104D01*
X010874Y009147D01*
X010928Y009201D01*
X010971Y009265D01*
X011000Y009336D01*
X011015Y009412D01*
X011015Y009420D01*
X010655Y009420D01*
X010655Y009060D01*
X010655Y009212D02*
X010595Y009212D01*
X010595Y009311D02*
X010655Y009311D01*
X010655Y009409D02*
X010595Y009409D01*
X010595Y009508D02*
X010655Y009508D01*
X010655Y009606D02*
X010595Y009606D01*
X010595Y009705D02*
X010655Y009705D01*
X010655Y009803D02*
X010595Y009803D01*
X010595Y009902D02*
X010655Y009902D01*
X010655Y010000D02*
X010595Y010000D01*
X010595Y010099D02*
X010655Y010099D01*
X010655Y010197D02*
X010595Y010197D01*
X010910Y010197D02*
X011340Y010197D01*
X011273Y010099D02*
X010977Y010099D01*
X011009Y010000D02*
X011235Y010000D01*
X011235Y009902D02*
X011015Y009902D01*
X011015Y009803D02*
X011235Y009803D01*
X011235Y009705D02*
X011015Y009705D01*
X011015Y009606D02*
X011235Y009606D01*
X011235Y009508D02*
X011015Y009508D01*
X011014Y009409D02*
X011235Y009409D01*
X011261Y009311D02*
X010989Y009311D01*
X010935Y009212D02*
X011311Y009212D01*
X011418Y009114D02*
X010823Y009114D01*
X010315Y009212D02*
X009215Y009212D01*
X009215Y009311D02*
X010261Y009311D01*
X010236Y009409D02*
X009215Y009409D01*
X009215Y009508D02*
X010235Y009508D01*
X010235Y009606D02*
X009121Y009606D01*
X009022Y009705D02*
X010235Y009705D01*
X010235Y009803D02*
X003475Y009803D01*
X003475Y009705D02*
X003750Y009705D01*
X003651Y009606D02*
X003475Y009606D01*
X003475Y009508D02*
X003608Y009508D01*
X003580Y009409D02*
X003475Y009409D01*
X003475Y009311D02*
X003580Y009311D01*
X003600Y009212D02*
X003475Y009212D01*
X003475Y009114D02*
X003641Y009114D01*
X003730Y009015D02*
X003475Y009015D01*
X003475Y008917D02*
X003908Y008917D01*
X003725Y008621D02*
X003475Y008621D01*
X003475Y008523D02*
X003626Y008523D01*
X003583Y008424D02*
X003475Y008424D01*
X003475Y008326D02*
X003550Y008326D01*
X003550Y008227D02*
X003475Y008227D01*
X003475Y008129D02*
X003561Y008129D01*
X003602Y008030D02*
X003475Y008030D01*
X003475Y007932D02*
X003672Y007932D01*
X003791Y007833D02*
X003475Y007833D01*
X003475Y007735D02*
X015735Y007735D01*
X015735Y007812D02*
X015735Y007488D01*
X015963Y007260D01*
X016287Y007260D01*
X016515Y007488D01*
X016515Y007812D01*
X016287Y008040D01*
X015963Y008040D01*
X015735Y007812D01*
X015756Y007833D02*
X004259Y007833D01*
X004207Y007690D02*
X004136Y007713D01*
X004075Y007723D01*
X004075Y007300D01*
X004498Y007300D01*
X004488Y007361D01*
X004465Y007432D01*
X004431Y007499D01*
X004387Y007559D01*
X004334Y007612D01*
X004274Y007656D01*
X004207Y007690D01*
X004301Y007636D02*
X015735Y007636D01*
X015735Y007538D02*
X008989Y007538D01*
X008987Y007540D02*
X008663Y007540D01*
X008435Y007312D01*
X008435Y006988D01*
X008663Y006760D01*
X008987Y006760D01*
X009215Y006988D01*
X009215Y007312D01*
X008987Y007540D01*
X009088Y007439D02*
X015784Y007439D01*
X015883Y007341D02*
X009186Y007341D01*
X009215Y007242D02*
X012796Y007242D01*
X012770Y007231D02*
X012644Y007105D01*
X012575Y006940D01*
X012575Y006760D01*
X012644Y006595D01*
X012770Y006469D01*
X012935Y006400D01*
X013115Y006400D01*
X013280Y006469D01*
X013406Y006595D01*
X013475Y006760D01*
X013475Y006940D01*
X013406Y007105D01*
X013280Y007231D01*
X013115Y007300D01*
X012935Y007300D01*
X012770Y007231D01*
X012682Y007144D02*
X009215Y007144D01*
X009215Y007045D02*
X012619Y007045D01*
X012578Y006947D02*
X009173Y006947D01*
X009075Y006848D02*
X012575Y006848D01*
X012580Y006750D02*
X011877Y006750D01*
X011846Y006781D02*
X011703Y006840D01*
X011547Y006840D01*
X011404Y006781D01*
X011294Y006671D01*
X011235Y006528D01*
X011235Y005892D01*
X011294Y005749D01*
X011404Y005639D01*
X011547Y005580D01*
X011703Y005580D01*
X011846Y005639D01*
X011956Y005749D01*
X012015Y005892D01*
X012015Y006528D01*
X011956Y006671D01*
X011846Y006781D01*
X011964Y006651D02*
X012620Y006651D01*
X012686Y006553D02*
X012005Y006553D01*
X012015Y006454D02*
X012805Y006454D01*
X013245Y006454D02*
X014805Y006454D01*
X014770Y006469D02*
X014935Y006400D01*
X015115Y006400D01*
X015280Y006469D01*
X015406Y006595D01*
X015475Y006760D01*
X015475Y006940D01*
X015406Y007105D01*
X015280Y007231D01*
X015115Y007300D01*
X014935Y007300D01*
X014770Y007231D01*
X014644Y007105D01*
X014575Y006940D01*
X014575Y006760D01*
X014644Y006595D01*
X014770Y006469D01*
X014686Y006553D02*
X013364Y006553D01*
X013430Y006651D02*
X014620Y006651D01*
X014580Y006750D02*
X013470Y006750D01*
X013475Y006848D02*
X014575Y006848D01*
X014578Y006947D02*
X013472Y006947D01*
X013431Y007045D02*
X014619Y007045D01*
X014682Y007144D02*
X013368Y007144D01*
X013254Y007242D02*
X014796Y007242D01*
X015254Y007242D02*
X018050Y007242D01*
X018050Y007156D02*
X018122Y006981D01*
X018256Y006847D01*
X018431Y006775D01*
X018619Y006775D01*
X018794Y006847D01*
X018928Y006981D01*
X019000Y007156D01*
X019000Y007344D01*
X018928Y007519D01*
X018794Y007653D01*
X018619Y007725D01*
X018431Y007725D01*
X018256Y007653D01*
X018122Y007519D01*
X018050Y007344D01*
X018050Y007156D01*
X018055Y007144D02*
X015368Y007144D01*
X015431Y007045D02*
X018096Y007045D01*
X018157Y006947D02*
X015472Y006947D01*
X015475Y006848D02*
X018256Y006848D01*
X018343Y006690D02*
X018276Y006656D01*
X018216Y006612D01*
X018163Y006559D01*
X018119Y006499D01*
X018085Y006432D01*
X018062Y006361D01*
X018052Y006300D01*
X018475Y006300D01*
X018475Y006723D01*
X018414Y006713D01*
X018343Y006690D01*
X018269Y006651D02*
X015430Y006651D01*
X015470Y006750D02*
X019275Y006750D01*
X019275Y006848D02*
X018794Y006848D01*
X018893Y006947D02*
X019275Y006947D01*
X019275Y007045D02*
X018954Y007045D01*
X018995Y007144D02*
X019275Y007144D01*
X019275Y007242D02*
X019000Y007242D01*
X019000Y007341D02*
X019275Y007341D01*
X019275Y007439D02*
X018961Y007439D01*
X018909Y007538D02*
X019275Y007538D01*
X019275Y007636D02*
X018810Y007636D01*
X018759Y007833D02*
X019275Y007833D01*
X019275Y007735D02*
X016515Y007735D01*
X016515Y007636D02*
X018240Y007636D01*
X018141Y007538D02*
X016515Y007538D01*
X016466Y007439D02*
X018089Y007439D01*
X018050Y007341D02*
X016367Y007341D01*
X016494Y007833D02*
X018291Y007833D01*
X018172Y007932D02*
X016395Y007932D01*
X016297Y008030D02*
X018102Y008030D01*
X018061Y008129D02*
X009215Y008129D01*
X009215Y008227D02*
X018050Y008227D01*
X018825Y008621D02*
X019275Y008621D01*
X019275Y008523D02*
X018924Y008523D01*
X018967Y008424D02*
X019275Y008424D01*
X019275Y008326D02*
X019000Y008326D01*
X019000Y008227D02*
X019275Y008227D01*
X019275Y008129D02*
X018989Y008129D01*
X018948Y008030D02*
X019275Y008030D01*
X019275Y007932D02*
X018878Y007932D01*
X018327Y008818D02*
X016615Y008818D01*
X016610Y008917D02*
X018187Y008917D01*
X018112Y009015D02*
X016512Y009015D01*
X016413Y009114D02*
X018070Y009114D01*
X018475Y009015D02*
X018575Y009015D01*
X018575Y008917D02*
X018475Y008917D01*
X018475Y009311D02*
X018575Y009311D01*
X018575Y009409D02*
X018475Y009409D01*
X018475Y009508D02*
X018575Y009508D01*
X018575Y009606D02*
X018475Y009606D01*
X018840Y009606D02*
X019275Y009606D01*
X019275Y009508D02*
X018925Y009508D01*
X018973Y009409D02*
X019275Y009409D01*
X019275Y009311D02*
X018996Y009311D01*
X018071Y010394D02*
X016421Y010394D01*
X016519Y010493D02*
X018112Y010493D01*
X018195Y010591D02*
X016615Y010591D01*
X016615Y010690D02*
X018345Y010690D01*
X018598Y011478D02*
X019275Y011478D01*
X019275Y011576D02*
X018836Y011576D01*
X018953Y011675D02*
X019275Y011675D01*
X019275Y011773D02*
X019051Y011773D01*
X019112Y011872D02*
X019275Y011872D01*
X019275Y011970D02*
X019153Y011970D01*
X019194Y012069D02*
X019275Y012069D01*
X019275Y012167D02*
X019205Y012167D01*
X019205Y012266D02*
X019275Y012266D01*
X019275Y012364D02*
X019205Y012364D01*
X019181Y012463D02*
X019275Y012463D01*
X019275Y012561D02*
X019140Y012561D01*
X019100Y012660D02*
X019275Y012660D01*
X019275Y012758D02*
X019020Y012758D01*
X018921Y012857D02*
X019275Y012857D01*
X019275Y012955D02*
X018761Y012955D01*
X016037Y009114D02*
X014298Y009114D01*
X014396Y009015D02*
X015938Y009015D01*
X015840Y008917D02*
X014443Y008917D01*
X014475Y008818D02*
X015835Y008818D01*
X015835Y008720D02*
X014475Y008720D01*
X014459Y008621D02*
X015835Y008621D01*
X015901Y008523D02*
X014418Y008523D01*
X014335Y008424D02*
X015999Y008424D01*
X015953Y008030D02*
X009157Y008030D01*
X009058Y007932D02*
X015855Y007932D01*
X015364Y006553D02*
X018158Y006553D01*
X018096Y006454D02*
X015245Y006454D01*
X014280Y005231D02*
X014115Y005300D01*
X013935Y005300D01*
X013770Y005231D01*
X013644Y005105D01*
X013575Y004940D01*
X013575Y004760D01*
X013644Y004595D01*
X013770Y004469D01*
X013935Y004400D01*
X014115Y004400D01*
X014280Y004469D01*
X014406Y004595D01*
X014475Y004760D01*
X014475Y004940D01*
X014406Y005105D01*
X014280Y005231D01*
X014338Y005174D02*
X018050Y005174D01*
X018050Y005156D02*
X018122Y004981D01*
X018256Y004847D01*
X018431Y004775D01*
X018619Y004775D01*
X018794Y004847D01*
X018928Y004981D01*
X019000Y005156D01*
X019000Y005344D01*
X018928Y005519D01*
X018794Y005653D01*
X018619Y005725D01*
X018431Y005725D01*
X018256Y005653D01*
X018122Y005519D01*
X018050Y005344D01*
X018050Y005156D01*
X018084Y005075D02*
X014419Y005075D01*
X014460Y004977D02*
X015900Y004977D01*
X015963Y005040D02*
X015735Y004812D01*
X015735Y004488D01*
X015963Y004260D01*
X016287Y004260D01*
X016515Y004488D01*
X016515Y004812D01*
X016287Y005040D01*
X015963Y005040D01*
X015801Y004878D02*
X014475Y004878D01*
X014475Y004780D02*
X015735Y004780D01*
X015735Y004681D02*
X014442Y004681D01*
X014394Y004583D02*
X015735Y004583D01*
X015739Y004484D02*
X014295Y004484D01*
X014114Y004204D02*
X014042Y004235D01*
X013964Y004250D01*
X013955Y004250D01*
X013955Y003880D01*
X013895Y003880D01*
X013895Y004250D01*
X013886Y004250D01*
X013808Y004235D01*
X013736Y004204D01*
X013670Y004161D01*
X013614Y004105D01*
X013571Y004039D01*
X013540Y003967D01*
X013525Y003889D01*
X013525Y003880D01*
X013895Y003880D01*
X013895Y003820D01*
X013525Y003820D01*
X013525Y003811D01*
X013540Y003733D01*
X013571Y003661D01*
X013614Y003595D01*
X013670Y003539D01*
X013736Y003496D01*
X013808Y003465D01*
X013886Y003450D01*
X013895Y003450D01*
X013895Y003820D01*
X013955Y003820D01*
X013955Y003880D01*
X014325Y003880D01*
X014325Y003889D01*
X014310Y003967D01*
X014279Y004039D01*
X014236Y004105D01*
X014180Y004161D01*
X014114Y004204D01*
X014138Y004189D02*
X014698Y004189D01*
X014586Y004077D01*
X014525Y003930D01*
X014525Y003770D01*
X014586Y003623D01*
X014698Y003511D01*
X014845Y003450D01*
X015005Y003450D01*
X015152Y003511D01*
X015264Y003623D01*
X015325Y003770D01*
X015325Y003930D01*
X015264Y004077D01*
X015152Y004189D01*
X015005Y004250D01*
X014845Y004250D01*
X014698Y004189D01*
X014599Y004090D02*
X014246Y004090D01*
X014299Y003992D02*
X014551Y003992D01*
X014525Y003893D02*
X014324Y003893D01*
X014325Y003820D02*
X013955Y003820D01*
X013955Y003450D01*
X013964Y003450D01*
X014042Y003465D01*
X014114Y003496D01*
X014180Y003539D01*
X014236Y003595D01*
X014279Y003661D01*
X014310Y003733D01*
X014325Y003811D01*
X014325Y003820D01*
X014322Y003795D02*
X014525Y003795D01*
X014556Y003696D02*
X014294Y003696D01*
X014237Y003598D02*
X014612Y003598D01*
X014727Y003499D02*
X014120Y003499D01*
X013955Y003499D02*
X013895Y003499D01*
X013895Y003598D02*
X013955Y003598D01*
X013955Y003696D02*
X013895Y003696D01*
X013895Y003795D02*
X013955Y003795D01*
X013955Y003893D02*
X013895Y003893D01*
X013895Y003992D02*
X013955Y003992D01*
X013955Y004090D02*
X013895Y004090D01*
X013895Y004189D02*
X013955Y004189D01*
X013712Y004189D02*
X012838Y004189D01*
X012787Y004240D02*
X012463Y004240D01*
X012235Y004012D01*
X012235Y003688D01*
X012463Y003460D01*
X012787Y003460D01*
X013015Y003688D01*
X013015Y004012D01*
X012787Y004240D01*
X012937Y004090D02*
X013604Y004090D01*
X013551Y003992D02*
X013015Y003992D01*
X013015Y003893D02*
X013526Y003893D01*
X013528Y003795D02*
X013015Y003795D01*
X013015Y003696D02*
X013556Y003696D01*
X013613Y003598D02*
X012924Y003598D01*
X012826Y003499D02*
X013730Y003499D01*
X012424Y003499D02*
X011826Y003499D01*
X011787Y003460D02*
X012015Y003688D01*
X012015Y004012D01*
X011787Y004240D01*
X011463Y004240D01*
X011235Y004012D01*
X011235Y003688D01*
X011463Y003460D01*
X011787Y003460D01*
X011924Y003598D02*
X012326Y003598D01*
X012235Y003696D02*
X012015Y003696D01*
X012015Y003795D02*
X012235Y003795D01*
X012235Y003893D02*
X012015Y003893D01*
X012015Y003992D02*
X012235Y003992D01*
X012313Y004090D02*
X011937Y004090D01*
X011838Y004189D02*
X012412Y004189D01*
X011412Y004189D02*
X010838Y004189D01*
X010787Y004240D02*
X010463Y004240D01*
X010303Y004080D01*
X009798Y004080D01*
X009786Y004092D01*
X009682Y004135D01*
X009568Y004135D01*
X009464Y004092D01*
X009383Y004011D01*
X009340Y003907D01*
X009340Y003793D01*
X009383Y003689D01*
X009464Y003608D01*
X009568Y003565D01*
X009682Y003565D01*
X009786Y003608D01*
X009798Y003620D01*
X010303Y003620D01*
X010463Y003460D01*
X010787Y003460D01*
X011015Y003688D01*
X011015Y004012D01*
X010787Y004240D01*
X010937Y004090D02*
X011313Y004090D01*
X011235Y003992D02*
X011015Y003992D01*
X011015Y003893D02*
X011235Y003893D01*
X011235Y003795D02*
X011015Y003795D01*
X011015Y003696D02*
X011235Y003696D01*
X011326Y003598D02*
X010924Y003598D01*
X010826Y003499D02*
X011424Y003499D01*
X010424Y003499D02*
X006879Y003499D01*
X006867Y003511D02*
X006580Y003630D01*
X006270Y003630D01*
X005983Y003511D01*
X005764Y003292D01*
X005645Y003005D01*
X005645Y002695D01*
X005764Y002408D01*
X005983Y002189D01*
X006270Y002070D01*
X006580Y002070D01*
X006867Y002189D01*
X007086Y002408D01*
X007205Y002695D01*
X007205Y003005D01*
X007086Y003292D01*
X006867Y003511D01*
X006977Y003401D02*
X019275Y003401D01*
X019275Y003499D02*
X018326Y003499D01*
X018287Y003460D02*
X018515Y003688D01*
X018515Y003820D01*
X018155Y003820D01*
X018155Y003880D01*
X018095Y003880D01*
X018095Y004240D01*
X017963Y004240D01*
X017735Y004012D01*
X017735Y003880D01*
X018095Y003880D01*
X018095Y003820D01*
X017735Y003820D01*
X017735Y003688D01*
X017963Y003460D01*
X018095Y003460D01*
X018095Y003820D01*
X018155Y003820D01*
X018155Y003460D01*
X018287Y003460D01*
X018155Y003499D02*
X018095Y003499D01*
X018095Y003598D02*
X018155Y003598D01*
X018155Y003696D02*
X018095Y003696D01*
X018095Y003795D02*
X018155Y003795D01*
X018155Y003880D02*
X018515Y003880D01*
X018515Y004012D01*
X018287Y004240D01*
X018155Y004240D01*
X018155Y003880D01*
X018155Y003893D02*
X018095Y003893D01*
X018095Y003992D02*
X018155Y003992D01*
X018155Y004090D02*
X018095Y004090D01*
X018095Y004189D02*
X018155Y004189D01*
X018338Y004189D02*
X019275Y004189D01*
X019275Y004287D02*
X016314Y004287D01*
X016412Y004386D02*
X019275Y004386D01*
X019275Y004484D02*
X016511Y004484D01*
X016515Y004583D02*
X019275Y004583D01*
X019275Y004681D02*
X016515Y004681D01*
X016515Y004780D02*
X018420Y004780D01*
X018630Y004780D02*
X019275Y004780D01*
X019275Y004878D02*
X018824Y004878D01*
X018923Y004977D02*
X019275Y004977D01*
X019275Y005075D02*
X018966Y005075D01*
X019000Y005174D02*
X019275Y005174D01*
X019275Y005272D02*
X019000Y005272D01*
X018989Y005371D02*
X019275Y005371D01*
X019275Y005469D02*
X018948Y005469D01*
X018879Y005568D02*
X019275Y005568D01*
X019275Y005666D02*
X018761Y005666D01*
X018707Y005810D02*
X018636Y005787D01*
X018575Y005777D01*
X018575Y006200D01*
X018575Y006300D01*
X018998Y006300D01*
X018988Y006361D01*
X018965Y006432D01*
X018931Y006499D01*
X018887Y006559D01*
X018834Y006612D01*
X018774Y006656D01*
X018707Y006690D01*
X018636Y006713D01*
X018575Y006723D01*
X018575Y006300D01*
X018475Y006300D01*
X018475Y006200D01*
X018575Y006200D01*
X018998Y006200D01*
X018988Y006139D01*
X018965Y006068D01*
X018931Y006001D01*
X018887Y005941D01*
X018834Y005888D01*
X018774Y005844D01*
X018707Y005810D01*
X018800Y005863D02*
X019275Y005863D01*
X019275Y005765D02*
X011962Y005765D01*
X012003Y005863D02*
X018250Y005863D01*
X018276Y005844D02*
X018343Y005810D01*
X018414Y005787D01*
X018475Y005777D01*
X018475Y006200D01*
X018052Y006200D01*
X018062Y006139D01*
X018085Y006068D01*
X018119Y006001D01*
X018163Y005941D01*
X018216Y005888D01*
X018276Y005844D01*
X018148Y005962D02*
X012015Y005962D01*
X012015Y006060D02*
X018089Y006060D01*
X018059Y006159D02*
X012015Y006159D01*
X012015Y006257D02*
X018475Y006257D01*
X018475Y006159D02*
X018575Y006159D01*
X018575Y006257D02*
X019275Y006257D01*
X019275Y006159D02*
X018991Y006159D01*
X018961Y006060D02*
X019275Y006060D01*
X019275Y005962D02*
X018902Y005962D01*
X018575Y005962D02*
X018475Y005962D01*
X018475Y006060D02*
X018575Y006060D01*
X018575Y005863D02*
X018475Y005863D01*
X018289Y005666D02*
X011873Y005666D01*
X011377Y005666D02*
X010872Y005666D01*
X010874Y005667D02*
X010928Y005721D01*
X010971Y005785D01*
X011000Y005856D01*
X011015Y005932D01*
X011015Y006420D01*
X010655Y006420D01*
X010655Y006480D01*
X010595Y006480D01*
X010595Y006840D01*
X010587Y006840D01*
X010511Y006825D01*
X010440Y006796D01*
X010376Y006753D01*
X010322Y006699D01*
X010279Y006635D01*
X010250Y006564D01*
X010235Y006488D01*
X010235Y006480D01*
X010595Y006480D01*
X010595Y006420D01*
X010235Y006420D01*
X010235Y005932D01*
X010250Y005856D01*
X010279Y005785D01*
X010322Y005721D01*
X010376Y005667D01*
X010440Y005624D01*
X010511Y005595D01*
X010587Y005580D01*
X010595Y005580D01*
X010595Y006420D01*
X010655Y006420D01*
X010655Y005580D01*
X010663Y005580D01*
X010739Y005595D01*
X010810Y005624D01*
X010874Y005667D01*
X010957Y005765D02*
X011288Y005765D01*
X011247Y005863D02*
X011001Y005863D01*
X011015Y005962D02*
X011235Y005962D01*
X011235Y006060D02*
X011015Y006060D01*
X011015Y006159D02*
X011235Y006159D01*
X011235Y006257D02*
X011015Y006257D01*
X011015Y006356D02*
X011235Y006356D01*
X011235Y006454D02*
X010655Y006454D01*
X010655Y006480D02*
X011015Y006480D01*
X011015Y006488D01*
X011000Y006564D01*
X010971Y006635D01*
X010928Y006699D01*
X010874Y006753D01*
X010810Y006796D01*
X010739Y006825D01*
X010663Y006840D01*
X010655Y006840D01*
X010655Y006480D01*
X010595Y006454D02*
X003475Y006454D01*
X003475Y006356D02*
X003823Y006356D01*
X003842Y006374D02*
X003701Y006233D01*
X003625Y006049D01*
X003625Y005851D01*
X003701Y005667D01*
X003842Y005526D01*
X004026Y005450D01*
X003842Y005374D01*
X003701Y005233D01*
X003625Y005049D01*
X003625Y004851D01*
X003701Y004667D01*
X003842Y004526D01*
X004026Y004450D01*
X004224Y004450D01*
X004408Y004526D01*
X004549Y004667D01*
X004625Y004851D01*
X004625Y005049D01*
X004549Y005233D01*
X004408Y005374D01*
X004224Y005450D01*
X004026Y005450D01*
X004224Y005450D01*
X004408Y005526D01*
X004549Y005667D01*
X004625Y005851D01*
X004625Y006049D01*
X004549Y006233D01*
X004408Y006374D01*
X004224Y006450D01*
X004026Y006450D01*
X003842Y006374D01*
X003725Y006257D02*
X003475Y006257D01*
X003475Y006159D02*
X003670Y006159D01*
X003629Y006060D02*
X003475Y006060D01*
X003475Y005962D02*
X003625Y005962D01*
X003625Y005863D02*
X003475Y005863D01*
X003475Y005765D02*
X003661Y005765D01*
X003702Y005666D02*
X003475Y005666D01*
X003475Y005568D02*
X003800Y005568D01*
X003980Y005469D02*
X003475Y005469D01*
X003475Y005371D02*
X003838Y005371D01*
X003740Y005272D02*
X003475Y005272D01*
X003475Y005174D02*
X003676Y005174D01*
X003636Y005075D02*
X003475Y005075D01*
X003475Y004977D02*
X003625Y004977D01*
X003625Y004878D02*
X003475Y004878D01*
X003475Y004780D02*
X003654Y004780D01*
X003695Y004681D02*
X003475Y004681D01*
X003475Y004583D02*
X003785Y004583D01*
X003943Y004484D02*
X003475Y004484D01*
X003475Y004386D02*
X015838Y004386D01*
X015845Y004250D02*
X015698Y004189D01*
X015586Y004077D01*
X015525Y003930D01*
X015525Y003770D01*
X015586Y003623D01*
X015698Y003511D01*
X015845Y003450D01*
X016005Y003450D01*
X016152Y003511D01*
X016264Y003623D01*
X016325Y003770D01*
X016325Y003930D01*
X016264Y004077D01*
X016152Y004189D01*
X016005Y004250D01*
X015845Y004250D01*
X015936Y004287D02*
X003475Y004287D01*
X003475Y004189D02*
X010412Y004189D01*
X010313Y004090D02*
X009788Y004090D01*
X009462Y004090D02*
X003475Y004090D01*
X003475Y003992D02*
X009375Y003992D01*
X009340Y003893D02*
X003475Y003893D01*
X003475Y003795D02*
X009340Y003795D01*
X009380Y003696D02*
X003475Y003696D01*
X003475Y003598D02*
X006192Y003598D01*
X005971Y003499D02*
X004348Y003499D01*
X004408Y003474D02*
X004224Y003550D01*
X004026Y003550D01*
X003842Y003474D01*
X003701Y003333D01*
X003625Y003149D01*
X003625Y002951D01*
X003701Y002767D01*
X003842Y002626D01*
X004026Y002550D01*
X004224Y002550D01*
X004408Y002626D01*
X004549Y002767D01*
X004625Y002951D01*
X004625Y003149D01*
X004549Y003333D01*
X004408Y003474D01*
X004482Y003401D02*
X005873Y003401D01*
X005774Y003302D02*
X004562Y003302D01*
X004603Y003204D02*
X005727Y003204D01*
X005686Y003105D02*
X004625Y003105D01*
X004625Y003007D02*
X005646Y003007D01*
X005645Y002908D02*
X004607Y002908D01*
X004567Y002810D02*
X005645Y002810D01*
X005645Y002711D02*
X004493Y002711D01*
X004375Y002613D02*
X005679Y002613D01*
X005720Y002514D02*
X004311Y002514D01*
X004224Y002550D02*
X004408Y002474D01*
X004549Y002333D01*
X004625Y002149D01*
X004625Y001951D01*
X004549Y001767D01*
X004408Y001626D01*
X004224Y001550D01*
X004026Y001550D01*
X003842Y001626D01*
X003701Y001767D01*
X003625Y001951D01*
X003625Y002149D01*
X003701Y002333D01*
X003842Y002474D01*
X004026Y002550D01*
X004224Y002550D01*
X004467Y002416D02*
X005761Y002416D01*
X005855Y002317D02*
X004556Y002317D01*
X004596Y002219D02*
X005954Y002219D01*
X006149Y002120D02*
X004625Y002120D01*
X004625Y002022D02*
X008035Y002022D01*
X008035Y001932D02*
X008050Y001856D01*
X008079Y001785D01*
X008122Y001721D01*
X008176Y001667D01*
X008240Y001624D01*
X008311Y001595D01*
X008387Y001580D01*
X008395Y001580D01*
X008395Y002420D01*
X008035Y002420D01*
X008035Y001932D01*
X008037Y001923D02*
X004614Y001923D01*
X004573Y001825D02*
X008063Y001825D01*
X008119Y001726D02*
X004508Y001726D01*
X004410Y001628D02*
X008236Y001628D01*
X008395Y001628D02*
X008455Y001628D01*
X008455Y001580D02*
X008463Y001580D01*
X008539Y001595D01*
X008610Y001624D01*
X008674Y001667D01*
X008728Y001721D01*
X008771Y001785D01*
X008800Y001856D01*
X008815Y001932D01*
X008815Y002420D01*
X008455Y002420D01*
X008455Y002480D01*
X008395Y002480D01*
X008395Y002840D01*
X008387Y002840D01*
X008311Y002825D01*
X008240Y002796D01*
X008176Y002753D01*
X008122Y002699D01*
X008079Y002635D01*
X008050Y002564D01*
X008035Y002488D01*
X008035Y002480D01*
X008395Y002480D01*
X008395Y002420D01*
X008455Y002420D01*
X008455Y001580D01*
X008455Y001726D02*
X008395Y001726D01*
X008395Y001825D02*
X008455Y001825D01*
X008455Y001923D02*
X008395Y001923D01*
X008395Y002022D02*
X008455Y002022D01*
X008455Y002120D02*
X008395Y002120D01*
X008395Y002219D02*
X008455Y002219D01*
X008455Y002317D02*
X008395Y002317D01*
X008395Y002416D02*
X008455Y002416D01*
X008455Y002480D02*
X008815Y002480D01*
X008815Y002488D01*
X008800Y002564D01*
X008771Y002635D01*
X008728Y002699D01*
X008674Y002753D01*
X008610Y002796D01*
X008539Y002825D01*
X008463Y002840D01*
X008455Y002840D01*
X008455Y002480D01*
X008455Y002514D02*
X008395Y002514D01*
X008395Y002613D02*
X008455Y002613D01*
X008455Y002711D02*
X008395Y002711D01*
X008395Y002810D02*
X008455Y002810D01*
X008576Y002810D02*
X009274Y002810D01*
X009204Y002781D02*
X009094Y002671D01*
X009035Y002528D01*
X009035Y001892D01*
X009094Y001749D01*
X009204Y001639D01*
X009347Y001580D01*
X009503Y001580D01*
X009646Y001639D01*
X009756Y001749D01*
X009815Y001892D01*
X009815Y002528D01*
X009756Y002671D01*
X009646Y002781D01*
X009503Y002840D01*
X009347Y002840D01*
X009204Y002781D01*
X009134Y002711D02*
X008716Y002711D01*
X008780Y002613D02*
X009070Y002613D01*
X009035Y002514D02*
X008810Y002514D01*
X008815Y002416D02*
X009035Y002416D01*
X009035Y002317D02*
X008815Y002317D01*
X008815Y002219D02*
X009035Y002219D01*
X009035Y002120D02*
X008815Y002120D01*
X008815Y002022D02*
X009035Y002022D01*
X009035Y001923D02*
X008813Y001923D01*
X008787Y001825D02*
X009063Y001825D01*
X009117Y001726D02*
X008731Y001726D01*
X008614Y001628D02*
X009233Y001628D01*
X009617Y001628D02*
X019275Y001628D01*
X019275Y001726D02*
X009733Y001726D01*
X009787Y001825D02*
X019275Y001825D01*
X019275Y001923D02*
X009815Y001923D01*
X009815Y002022D02*
X019275Y002022D01*
X019275Y002120D02*
X009815Y002120D01*
X009815Y002219D02*
X019275Y002219D01*
X019275Y002317D02*
X009815Y002317D01*
X009815Y002416D02*
X019275Y002416D01*
X019275Y002514D02*
X009815Y002514D01*
X009780Y002613D02*
X019275Y002613D01*
X019275Y002711D02*
X009716Y002711D01*
X009576Y002810D02*
X019275Y002810D01*
X019275Y002908D02*
X007205Y002908D01*
X007205Y002810D02*
X008274Y002810D01*
X008134Y002711D02*
X007205Y002711D01*
X007171Y002613D02*
X008070Y002613D01*
X008040Y002514D02*
X007130Y002514D01*
X007089Y002416D02*
X008035Y002416D01*
X008035Y002317D02*
X006995Y002317D01*
X006896Y002219D02*
X008035Y002219D01*
X008035Y002120D02*
X006701Y002120D01*
X005895Y001332D02*
X008555Y001332D01*
X008563Y001340D02*
X008335Y001112D01*
X008335Y000788D01*
X008563Y000560D01*
X008887Y000560D01*
X009115Y000788D01*
X009115Y001112D01*
X008887Y001340D01*
X008563Y001340D01*
X008457Y001234D02*
X005993Y001234D01*
X006092Y001135D02*
X008358Y001135D01*
X008335Y001037D02*
X006115Y001037D01*
X006115Y001112D02*
X005887Y001340D01*
X005563Y001340D01*
X005335Y001112D01*
X005335Y000788D01*
X005563Y000560D01*
X005887Y000560D01*
X006115Y000788D01*
X006115Y001112D01*
X006115Y000938D02*
X008335Y000938D01*
X008335Y000840D02*
X006115Y000840D01*
X006068Y000741D02*
X008382Y000741D01*
X008481Y000643D02*
X005969Y000643D01*
X005481Y000643D02*
X003475Y000643D01*
X003475Y000741D02*
X005382Y000741D01*
X005335Y000840D02*
X003475Y000840D01*
X003475Y000938D02*
X005335Y000938D01*
X005335Y001037D02*
X003475Y001037D01*
X003475Y001135D02*
X005358Y001135D01*
X005457Y001234D02*
X003475Y001234D01*
X003475Y001332D02*
X005555Y001332D01*
X003840Y001628D02*
X003475Y001628D01*
X003475Y001726D02*
X003742Y001726D01*
X003677Y001825D02*
X003475Y001825D01*
X003475Y001923D02*
X003636Y001923D01*
X003625Y002022D02*
X003475Y002022D01*
X003475Y002120D02*
X003625Y002120D01*
X003654Y002219D02*
X003475Y002219D01*
X003475Y002317D02*
X003694Y002317D01*
X003783Y002416D02*
X003475Y002416D01*
X003475Y002514D02*
X003939Y002514D01*
X003875Y002613D02*
X003475Y002613D01*
X003475Y002711D02*
X003757Y002711D01*
X003683Y002810D02*
X003475Y002810D01*
X003475Y002908D02*
X003643Y002908D01*
X003625Y003007D02*
X003475Y003007D01*
X003475Y003105D02*
X003625Y003105D01*
X003647Y003204D02*
X003475Y003204D01*
X003475Y003302D02*
X003688Y003302D01*
X003768Y003401D02*
X003475Y003401D01*
X003475Y003499D02*
X003902Y003499D01*
X004307Y004484D02*
X013755Y004484D01*
X013656Y004583D02*
X004465Y004583D01*
X004555Y004681D02*
X013608Y004681D01*
X013575Y004780D02*
X004596Y004780D01*
X004625Y004878D02*
X013575Y004878D01*
X013590Y004977D02*
X004625Y004977D01*
X004614Y005075D02*
X008311Y005075D01*
X008387Y005060D01*
X008395Y005060D01*
X008395Y005420D01*
X008455Y005420D01*
X008455Y005480D01*
X008815Y005480D01*
X008815Y005968D01*
X008800Y006044D01*
X008771Y006115D01*
X008728Y006179D01*
X008674Y006233D01*
X008610Y006276D01*
X008539Y006305D01*
X008463Y006320D01*
X008455Y006320D01*
X008455Y005480D01*
X008395Y005480D01*
X008395Y006320D01*
X008387Y006320D01*
X008311Y006305D01*
X008240Y006276D01*
X008176Y006233D01*
X008122Y006179D01*
X008079Y006115D01*
X008050Y006044D01*
X008035Y005968D01*
X008035Y005480D01*
X008395Y005480D01*
X008395Y005420D01*
X008035Y005420D01*
X008035Y005412D01*
X008050Y005336D01*
X008079Y005265D01*
X008122Y005201D01*
X008176Y005147D01*
X008240Y005104D01*
X008311Y005075D01*
X008395Y005075D02*
X008455Y005075D01*
X008455Y005060D02*
X008463Y005060D01*
X008539Y005075D01*
X009311Y005075D01*
X009347Y005060D02*
X009503Y005060D01*
X009646Y005119D01*
X009756Y005229D01*
X009815Y005372D01*
X009815Y006008D01*
X009756Y006151D01*
X009646Y006261D01*
X009503Y006320D01*
X009347Y006320D01*
X009204Y006261D01*
X009094Y006151D01*
X009035Y006008D01*
X009035Y005372D01*
X009094Y005229D01*
X009204Y005119D01*
X009347Y005060D01*
X009539Y005075D02*
X013631Y005075D01*
X013712Y005174D02*
X009700Y005174D01*
X009773Y005272D02*
X013868Y005272D01*
X014182Y005272D02*
X018050Y005272D01*
X018061Y005371D02*
X009814Y005371D01*
X009815Y005469D02*
X018102Y005469D01*
X018171Y005568D02*
X009815Y005568D01*
X009815Y005666D02*
X010378Y005666D01*
X010293Y005765D02*
X009815Y005765D01*
X009815Y005863D02*
X010249Y005863D01*
X010235Y005962D02*
X009815Y005962D01*
X009793Y006060D02*
X010235Y006060D01*
X010235Y006159D02*
X009748Y006159D01*
X009650Y006257D02*
X010235Y006257D01*
X010235Y006356D02*
X004427Y006356D01*
X004525Y006257D02*
X008212Y006257D01*
X008109Y006159D02*
X004580Y006159D01*
X004621Y006060D02*
X008057Y006060D01*
X008035Y005962D02*
X004625Y005962D01*
X004625Y005863D02*
X008035Y005863D01*
X008035Y005765D02*
X004589Y005765D01*
X004548Y005666D02*
X008035Y005666D01*
X008035Y005568D02*
X004450Y005568D01*
X004270Y005469D02*
X008395Y005469D01*
X008455Y005469D02*
X009035Y005469D01*
X009036Y005371D02*
X008807Y005371D01*
X008800Y005336D02*
X008815Y005412D01*
X008815Y005420D01*
X008455Y005420D01*
X008455Y005060D01*
X008539Y005075D02*
X008610Y005104D01*
X008674Y005147D01*
X008728Y005201D01*
X008771Y005265D01*
X008800Y005336D01*
X008773Y005272D02*
X009077Y005272D01*
X009150Y005174D02*
X008700Y005174D01*
X008455Y005174D02*
X008395Y005174D01*
X008395Y005272D02*
X008455Y005272D01*
X008455Y005371D02*
X008395Y005371D01*
X008150Y005174D02*
X004574Y005174D01*
X004510Y005272D02*
X008077Y005272D01*
X008043Y005371D02*
X004412Y005371D01*
X003475Y006553D02*
X010248Y006553D01*
X010290Y006651D02*
X003475Y006651D01*
X003475Y006750D02*
X010373Y006750D01*
X010595Y006750D02*
X010655Y006750D01*
X010655Y006651D02*
X010595Y006651D01*
X010595Y006553D02*
X010655Y006553D01*
X010655Y006356D02*
X010595Y006356D01*
X010595Y006257D02*
X010655Y006257D01*
X010655Y006159D02*
X010595Y006159D01*
X010595Y006060D02*
X010655Y006060D01*
X010655Y005962D02*
X010595Y005962D01*
X010595Y005863D02*
X010655Y005863D01*
X010655Y005765D02*
X010595Y005765D01*
X010595Y005666D02*
X010655Y005666D01*
X011002Y006553D02*
X011245Y006553D01*
X011286Y006651D02*
X010960Y006651D01*
X010877Y006750D02*
X011373Y006750D01*
X012015Y006356D02*
X018061Y006356D01*
X018475Y006356D02*
X018575Y006356D01*
X018575Y006454D02*
X018475Y006454D01*
X018475Y006553D02*
X018575Y006553D01*
X018575Y006651D02*
X018475Y006651D01*
X018781Y006651D02*
X019275Y006651D01*
X019275Y006553D02*
X018892Y006553D01*
X018954Y006454D02*
X019275Y006454D01*
X019275Y006356D02*
X018989Y006356D01*
X018127Y004977D02*
X016350Y004977D01*
X016449Y004878D02*
X018226Y004878D01*
X017912Y004189D02*
X017152Y004189D01*
X017005Y004250D01*
X016845Y004250D01*
X016698Y004189D01*
X016586Y004077D01*
X016525Y003930D01*
X016525Y003770D01*
X016586Y003623D01*
X016698Y003511D01*
X016845Y003450D01*
X017005Y003450D01*
X017152Y003511D01*
X017264Y003623D01*
X017325Y003770D01*
X017325Y003930D01*
X017264Y004077D01*
X017152Y004189D01*
X017251Y004090D02*
X017813Y004090D01*
X017735Y003992D02*
X017299Y003992D01*
X017325Y003893D02*
X017735Y003893D01*
X017735Y003795D02*
X017325Y003795D01*
X017294Y003696D02*
X017735Y003696D01*
X017826Y003598D02*
X017238Y003598D01*
X017123Y003499D02*
X017924Y003499D01*
X018424Y003598D02*
X019275Y003598D01*
X019275Y003696D02*
X018515Y003696D01*
X018515Y003795D02*
X019275Y003795D01*
X019275Y003893D02*
X018515Y003893D01*
X018515Y003992D02*
X019275Y003992D01*
X019275Y004090D02*
X018437Y004090D01*
X019275Y003302D02*
X007076Y003302D01*
X007123Y003204D02*
X019275Y003204D01*
X019275Y003105D02*
X007164Y003105D01*
X007204Y003007D02*
X019275Y003007D01*
X019275Y001529D02*
X003475Y001529D01*
X003475Y001431D02*
X019275Y001431D01*
X019275Y001332D02*
X008895Y001332D01*
X008993Y001234D02*
X010457Y001234D01*
X010463Y001240D02*
X010235Y001012D01*
X010235Y000880D01*
X010595Y000880D01*
X010595Y001240D01*
X010463Y001240D01*
X010595Y001234D02*
X010655Y001234D01*
X010655Y001240D02*
X010655Y000880D01*
X010595Y000880D01*
X010595Y000820D01*
X010235Y000820D01*
X010235Y000688D01*
X010463Y000460D01*
X010595Y000460D01*
X010595Y000820D01*
X010655Y000820D01*
X010655Y000880D01*
X011015Y000880D01*
X011015Y001012D01*
X010787Y001240D01*
X010655Y001240D01*
X010655Y001135D02*
X010595Y001135D01*
X010595Y001037D02*
X010655Y001037D01*
X010655Y000938D02*
X010595Y000938D01*
X010595Y000840D02*
X009115Y000840D01*
X009115Y000938D02*
X010235Y000938D01*
X010260Y001037D02*
X009115Y001037D01*
X009092Y001135D02*
X010358Y001135D01*
X010655Y000840D02*
X011235Y000840D01*
X011235Y000938D02*
X011015Y000938D01*
X010990Y001037D02*
X011260Y001037D01*
X011235Y001012D02*
X011235Y000688D01*
X011463Y000460D01*
X011787Y000460D01*
X012015Y000688D01*
X012015Y001012D01*
X011787Y001240D01*
X011463Y001240D01*
X011235Y001012D01*
X011358Y001135D02*
X010892Y001135D01*
X010793Y001234D02*
X011457Y001234D01*
X011793Y001234D02*
X012457Y001234D01*
X012463Y001240D02*
X012235Y001012D01*
X012235Y000880D01*
X012595Y000880D01*
X012595Y001240D01*
X012463Y001240D01*
X012595Y001234D02*
X012655Y001234D01*
X012655Y001240D02*
X012655Y000880D01*
X012595Y000880D01*
X012595Y000820D01*
X012235Y000820D01*
X012235Y000688D01*
X012463Y000460D01*
X012595Y000460D01*
X012595Y000820D01*
X012655Y000820D01*
X012655Y000880D01*
X013015Y000880D01*
X013015Y001012D01*
X012787Y001240D01*
X012655Y001240D01*
X012655Y001135D02*
X012595Y001135D01*
X012595Y001037D02*
X012655Y001037D01*
X012655Y000938D02*
X012595Y000938D01*
X012595Y000840D02*
X012015Y000840D01*
X012015Y000938D02*
X012235Y000938D01*
X012260Y001037D02*
X011990Y001037D01*
X011892Y001135D02*
X012358Y001135D01*
X012655Y000840D02*
X013895Y000840D01*
X013895Y000820D02*
X013525Y000820D01*
X013525Y000811D01*
X013540Y000733D01*
X013571Y000661D01*
X013614Y000595D01*
X013670Y000539D01*
X013736Y000496D01*
X013808Y000465D01*
X013886Y000450D01*
X013895Y000450D01*
X013895Y000820D01*
X013895Y000880D01*
X013895Y001250D01*
X013886Y001250D01*
X013808Y001235D01*
X013736Y001204D01*
X013670Y001161D01*
X013614Y001105D01*
X013571Y001039D01*
X013540Y000967D01*
X013525Y000889D01*
X013525Y000880D01*
X013895Y000880D01*
X013955Y000880D01*
X013955Y001250D01*
X013964Y001250D01*
X014042Y001235D01*
X014114Y001204D01*
X014180Y001161D01*
X014236Y001105D01*
X014279Y001039D01*
X014310Y000967D01*
X014325Y000889D01*
X014325Y000880D01*
X013955Y000880D01*
X013955Y000820D01*
X014325Y000820D01*
X014325Y000811D01*
X014310Y000733D01*
X014279Y000661D01*
X014236Y000595D01*
X014180Y000539D01*
X014114Y000496D01*
X014042Y000465D01*
X013964Y000450D01*
X013955Y000450D01*
X013955Y000820D01*
X013895Y000820D01*
X013955Y000840D02*
X014895Y000840D01*
X014895Y000820D02*
X014525Y000820D01*
X014525Y000811D01*
X014540Y000733D01*
X014571Y000661D01*
X014614Y000595D01*
X014670Y000539D01*
X014736Y000496D01*
X014808Y000465D01*
X014886Y000450D01*
X014895Y000450D01*
X014895Y000820D01*
X014895Y000880D01*
X014895Y001250D01*
X014886Y001250D01*
X014808Y001235D01*
X014736Y001204D01*
X014670Y001161D01*
X014614Y001105D01*
X014571Y001039D01*
X014540Y000967D01*
X014525Y000889D01*
X014525Y000880D01*
X014895Y000880D01*
X014955Y000880D01*
X014955Y001250D01*
X014964Y001250D01*
X015042Y001235D01*
X015114Y001204D01*
X015180Y001161D01*
X015236Y001105D01*
X015279Y001039D01*
X015310Y000967D01*
X015325Y000889D01*
X015325Y000880D01*
X014955Y000880D01*
X014955Y000820D01*
X015325Y000820D01*
X015325Y000811D01*
X015310Y000733D01*
X015279Y000661D01*
X015236Y000595D01*
X015180Y000539D01*
X015114Y000496D01*
X015042Y000465D01*
X014964Y000450D01*
X014955Y000450D01*
X014955Y000820D01*
X014895Y000820D01*
X014955Y000840D02*
X015525Y000840D01*
X015525Y000770D02*
X015525Y000930D01*
X015586Y001077D01*
X015698Y001189D01*
X015845Y001250D01*
X016005Y001250D01*
X016152Y001189D01*
X016264Y001077D01*
X016325Y000930D01*
X016325Y000770D01*
X016264Y000623D01*
X016152Y000511D01*
X016005Y000450D01*
X015845Y000450D01*
X015698Y000511D01*
X015586Y000623D01*
X015525Y000770D01*
X015537Y000741D02*
X015311Y000741D01*
X015267Y000643D02*
X015578Y000643D01*
X015665Y000544D02*
X015185Y000544D01*
X014955Y000544D02*
X014895Y000544D01*
X014895Y000643D02*
X014955Y000643D01*
X014955Y000741D02*
X014895Y000741D01*
X014895Y000938D02*
X014955Y000938D01*
X014955Y001037D02*
X014895Y001037D01*
X014895Y001135D02*
X014955Y001135D01*
X014955Y001234D02*
X014895Y001234D01*
X014806Y001234D02*
X014044Y001234D01*
X013955Y001234D02*
X013895Y001234D01*
X013806Y001234D02*
X012793Y001234D01*
X012892Y001135D02*
X013644Y001135D01*
X013569Y001037D02*
X012990Y001037D01*
X013015Y000938D02*
X013535Y000938D01*
X013539Y000741D02*
X013015Y000741D01*
X013015Y000688D02*
X013015Y000820D01*
X012655Y000820D01*
X012655Y000460D01*
X012787Y000460D01*
X013015Y000688D01*
X012969Y000643D02*
X013583Y000643D01*
X013665Y000544D02*
X012871Y000544D01*
X012655Y000544D02*
X012595Y000544D01*
X012595Y000643D02*
X012655Y000643D01*
X012655Y000741D02*
X012595Y000741D01*
X012379Y000544D02*
X011871Y000544D01*
X011969Y000643D02*
X012281Y000643D01*
X012235Y000741D02*
X012015Y000741D01*
X011379Y000544D02*
X010871Y000544D01*
X010787Y000460D02*
X010655Y000460D01*
X010655Y000820D01*
X011015Y000820D01*
X011015Y000688D01*
X010787Y000460D01*
X010655Y000544D02*
X010595Y000544D01*
X010595Y000643D02*
X010655Y000643D01*
X010655Y000741D02*
X010595Y000741D01*
X010379Y000544D02*
X003475Y000544D01*
X003475Y000446D02*
X019275Y000446D01*
X019275Y000544D02*
X018371Y000544D01*
X018287Y000460D02*
X018515Y000688D01*
X018515Y001012D01*
X018287Y001240D01*
X017963Y001240D01*
X017735Y001012D01*
X017735Y000688D01*
X017963Y000460D01*
X018287Y000460D01*
X018469Y000643D02*
X019275Y000643D01*
X019275Y000741D02*
X018515Y000741D01*
X018515Y000840D02*
X019275Y000840D01*
X019275Y000938D02*
X018515Y000938D01*
X018490Y001037D02*
X019275Y001037D01*
X019275Y001135D02*
X018392Y001135D01*
X018293Y001234D02*
X019275Y001234D01*
X019275Y000347D02*
X003475Y000347D01*
X006658Y003598D02*
X009490Y003598D01*
X009760Y003598D02*
X010326Y003598D01*
X009035Y005568D02*
X008815Y005568D01*
X008815Y005666D02*
X009035Y005666D01*
X009035Y005765D02*
X008815Y005765D01*
X008815Y005863D02*
X009035Y005863D01*
X009035Y005962D02*
X008815Y005962D01*
X008793Y006060D02*
X009057Y006060D01*
X009102Y006159D02*
X008741Y006159D01*
X008638Y006257D02*
X009200Y006257D01*
X008455Y006257D02*
X008395Y006257D01*
X008395Y006159D02*
X008455Y006159D01*
X008455Y006060D02*
X008395Y006060D01*
X008395Y005962D02*
X008455Y005962D01*
X008455Y005863D02*
X008395Y005863D01*
X008395Y005765D02*
X008455Y005765D01*
X008455Y005666D02*
X008395Y005666D01*
X008395Y005568D02*
X008455Y005568D01*
X008575Y006848D02*
X006075Y006848D01*
X005987Y006760D02*
X006215Y006988D01*
X006215Y007312D01*
X005987Y007540D01*
X005663Y007540D01*
X005435Y007312D01*
X005435Y006988D01*
X005663Y006760D01*
X005987Y006760D01*
X006173Y006947D02*
X008477Y006947D01*
X008435Y007045D02*
X006215Y007045D01*
X006215Y007144D02*
X008435Y007144D01*
X008435Y007242D02*
X006215Y007242D01*
X006186Y007341D02*
X008464Y007341D01*
X008562Y007439D02*
X006088Y007439D01*
X005989Y007538D02*
X008661Y007538D01*
X008592Y007932D02*
X006058Y007932D01*
X005987Y007860D02*
X006215Y008088D01*
X006215Y008412D01*
X005987Y008640D01*
X005663Y008640D01*
X005435Y008412D01*
X005435Y008088D01*
X005663Y007860D01*
X005987Y007860D01*
X006157Y008030D02*
X008493Y008030D01*
X008435Y008129D02*
X006215Y008129D01*
X006215Y008227D02*
X008435Y008227D01*
X008435Y008326D02*
X006215Y008326D01*
X006203Y008424D02*
X008447Y008424D01*
X008546Y008523D02*
X006104Y008523D01*
X006006Y008621D02*
X008644Y008621D01*
X010235Y009902D02*
X003475Y009902D01*
X003475Y010000D02*
X010241Y010000D01*
X010273Y010099D02*
X009025Y010099D01*
X009124Y010197D02*
X010340Y010197D01*
X012596Y010887D02*
X004135Y010887D01*
X004114Y010895D02*
X003936Y010895D01*
X003773Y010827D01*
X003648Y010702D01*
X003580Y010539D01*
X003580Y010361D01*
X003648Y010198D01*
X003773Y010073D01*
X003936Y010005D01*
X004114Y010005D01*
X004277Y010073D01*
X004402Y010198D01*
X004470Y010361D01*
X004470Y010539D01*
X004402Y010702D01*
X004277Y010827D01*
X004114Y010895D01*
X003915Y010887D02*
X003475Y010887D01*
X003475Y010985D02*
X012640Y010985D01*
X012975Y010591D02*
X013075Y010591D01*
X013075Y010493D02*
X012975Y010493D01*
X012975Y010394D02*
X013075Y010394D01*
X005625Y010099D02*
X004303Y010099D01*
X004402Y010197D02*
X005526Y010197D01*
X005435Y010296D02*
X004443Y010296D01*
X004470Y010394D02*
X005435Y010394D01*
X005435Y010493D02*
X004470Y010493D01*
X004449Y010591D02*
X005435Y010591D01*
X005513Y010690D02*
X004408Y010690D01*
X004317Y010788D02*
X005611Y010788D01*
X005628Y009705D02*
X004300Y009705D01*
X004399Y009606D02*
X005529Y009606D01*
X005435Y009508D02*
X004442Y009508D01*
X004470Y009409D02*
X005435Y009409D01*
X005435Y009311D02*
X004470Y009311D01*
X004450Y009212D02*
X005435Y009212D01*
X005510Y009114D02*
X004409Y009114D01*
X004325Y008621D02*
X005644Y008621D01*
X005546Y008523D02*
X004424Y008523D01*
X004467Y008424D02*
X005447Y008424D01*
X005435Y008326D02*
X004500Y008326D01*
X004500Y008227D02*
X005435Y008227D01*
X005435Y008129D02*
X004489Y008129D01*
X004448Y008030D02*
X005493Y008030D01*
X005592Y007932D02*
X004378Y007932D01*
X004075Y007636D02*
X003975Y007636D01*
X003975Y007723D02*
X003914Y007713D01*
X003843Y007690D01*
X003776Y007656D01*
X003716Y007612D01*
X003663Y007559D01*
X003619Y007499D01*
X003585Y007432D01*
X003562Y007361D01*
X003552Y007300D01*
X003975Y007300D01*
X003975Y007723D01*
X003749Y007636D02*
X003475Y007636D01*
X003475Y007538D02*
X003647Y007538D01*
X003588Y007439D02*
X003475Y007439D01*
X003475Y007341D02*
X003559Y007341D01*
X003475Y007242D02*
X003975Y007242D01*
X003975Y007200D02*
X003552Y007200D01*
X003562Y007139D01*
X003585Y007068D01*
X003619Y007001D01*
X003663Y006941D01*
X003716Y006888D01*
X003776Y006844D01*
X003843Y006810D01*
X003914Y006787D01*
X003975Y006777D01*
X003975Y007200D01*
X004075Y007200D01*
X004075Y007300D01*
X003975Y007300D01*
X003975Y007200D01*
X003975Y007144D02*
X004075Y007144D01*
X004075Y007200D02*
X004075Y006777D01*
X004136Y006787D01*
X004207Y006810D01*
X004274Y006844D01*
X004334Y006888D01*
X004387Y006941D01*
X004431Y007001D01*
X004465Y007068D01*
X004488Y007139D01*
X004498Y007200D01*
X004075Y007200D01*
X004075Y007242D02*
X005435Y007242D01*
X005435Y007144D02*
X004489Y007144D01*
X004453Y007045D02*
X005435Y007045D01*
X005477Y006947D02*
X004391Y006947D01*
X004280Y006848D02*
X005575Y006848D01*
X005464Y007341D02*
X004491Y007341D01*
X004462Y007439D02*
X005562Y007439D01*
X005661Y007538D02*
X004403Y007538D01*
X004075Y007538D02*
X003975Y007538D01*
X003975Y007439D02*
X004075Y007439D01*
X004075Y007341D02*
X003975Y007341D01*
X003975Y007045D02*
X004075Y007045D01*
X004075Y006947D02*
X003975Y006947D01*
X003975Y006848D02*
X004075Y006848D01*
X003770Y006848D02*
X003475Y006848D01*
X003475Y006947D02*
X003659Y006947D01*
X003597Y007045D02*
X003475Y007045D01*
X003475Y007144D02*
X003561Y007144D01*
X003475Y010099D02*
X003747Y010099D01*
X003648Y010197D02*
X003475Y010197D01*
X003475Y010296D02*
X003607Y010296D01*
X003580Y010394D02*
X003475Y010394D01*
X003475Y010493D02*
X003580Y010493D01*
X003601Y010591D02*
X003475Y010591D01*
X003475Y010690D02*
X003642Y010690D01*
X003733Y010788D02*
X003475Y010788D01*
X015152Y004189D02*
X015698Y004189D01*
X015599Y004090D02*
X015251Y004090D01*
X015299Y003992D02*
X015551Y003992D01*
X015525Y003893D02*
X015325Y003893D01*
X015325Y003795D02*
X015525Y003795D01*
X015556Y003696D02*
X015294Y003696D01*
X015238Y003598D02*
X015612Y003598D01*
X015727Y003499D02*
X015123Y003499D01*
X016123Y003499D02*
X016727Y003499D01*
X016612Y003598D02*
X016238Y003598D01*
X016294Y003696D02*
X016556Y003696D01*
X016525Y003795D02*
X016325Y003795D01*
X016325Y003893D02*
X016525Y003893D01*
X016551Y003992D02*
X016299Y003992D01*
X016251Y004090D02*
X016599Y004090D01*
X016698Y004189D02*
X016152Y004189D01*
X016044Y001234D02*
X016806Y001234D01*
X016845Y001250D02*
X016698Y001189D01*
X016586Y001077D01*
X016525Y000930D01*
X016525Y000770D01*
X016586Y000623D01*
X016698Y000511D01*
X016845Y000450D01*
X017005Y000450D01*
X017152Y000511D01*
X017264Y000623D01*
X017325Y000770D01*
X017325Y000930D01*
X017264Y001077D01*
X017152Y001189D01*
X017005Y001250D01*
X016845Y001250D01*
X017044Y001234D02*
X017957Y001234D01*
X017858Y001135D02*
X017206Y001135D01*
X017281Y001037D02*
X017760Y001037D01*
X017735Y000938D02*
X017322Y000938D01*
X017325Y000840D02*
X017735Y000840D01*
X017735Y000741D02*
X017313Y000741D01*
X017272Y000643D02*
X017781Y000643D01*
X017879Y000544D02*
X017185Y000544D01*
X016665Y000544D02*
X016185Y000544D01*
X016272Y000643D02*
X016578Y000643D01*
X016537Y000741D02*
X016313Y000741D01*
X016325Y000840D02*
X016525Y000840D01*
X016528Y000938D02*
X016322Y000938D01*
X016281Y001037D02*
X016569Y001037D01*
X016644Y001135D02*
X016206Y001135D01*
X015806Y001234D02*
X015044Y001234D01*
X015206Y001135D02*
X015644Y001135D01*
X015569Y001037D02*
X015281Y001037D01*
X015315Y000938D02*
X015528Y000938D01*
X014644Y001135D02*
X014206Y001135D01*
X014281Y001037D02*
X014569Y001037D01*
X014535Y000938D02*
X014315Y000938D01*
X014311Y000741D02*
X014539Y000741D01*
X014583Y000643D02*
X014267Y000643D01*
X014185Y000544D02*
X014665Y000544D01*
X013955Y000544D02*
X013895Y000544D01*
X013895Y000643D02*
X013955Y000643D01*
X013955Y000741D02*
X013895Y000741D01*
X013895Y000938D02*
X013955Y000938D01*
X013955Y001037D02*
X013895Y001037D01*
X013895Y001135D02*
X013955Y001135D01*
X011281Y000643D02*
X010969Y000643D01*
X011015Y000741D02*
X011235Y000741D01*
X010281Y000643D02*
X008969Y000643D01*
X009068Y000741D02*
X010235Y000741D01*
D18*
X009625Y003850D03*
D19*
X010625Y003850D01*
M02*
