%
M48
M72
T01C0.0130
T02C0.0320
T03C0.0354
T04C0.0394
T05C0.0400
T06C0.0433
T07C0.1260
%
T01
X9625Y3850
T02
X10625Y3850
X11625Y3850
X12625Y3850
X13925Y3850
X14925Y3850
X15925Y3850
X16925Y3850
X16125Y4650
X18125Y3850
X18125Y850
X16925Y850
X15925Y850
X14925Y850
X13925Y850
X12625Y850
X11625Y850
X10625Y850
X8725Y950
X8425Y2450
X9425Y2450
X5725Y950
X8425Y5450
X9425Y5450
X10625Y6450
X11625Y6450
X8825Y7150
X8825Y8250
X8825Y9350
X8825Y10450
X10625Y9450
X11625Y9450
X16225Y8750
X16125Y7650
X16225Y10750
X5825Y10450
X5825Y9350
X5825Y8250
X5825Y7150
T03
X4125Y2050
X4125Y3050
X4125Y4950
X4125Y5950
T04
X4025Y9350
X4025Y10450
T05
X13025Y10750
X15025Y10750
X14025Y8750
X13025Y6850
X15025Y6850
X14025Y4850
T06
X18525Y5250
X18525Y6250
X18525Y7250
X18525Y8250
X18525Y9250
X18525Y10250
X4025Y11650
X4025Y12650
X4025Y8250
X4025Y7250
T07
X6425Y2850
X6525Y12250
X18425Y12250
M30
